<?xml version="1.0" encoding="UTF-8"?>
<svg version="1.1" xmlns="http://www.w3.org/2000/svg" width="128" height="128">
<path d="M0 0 C42.24 0 84.48 0 128 0 C128 42.24 128 84.48 128 128 C85.76 128 43.52 128 0 128 C0 85.76 0 43.52 0 0 Z " fill="#141413" transform="translate(0,0)"/>
<path d="M0 0 C42.24 0 84.48 0 128 0 C128 40.26 128 80.52 128 122 C127.34 122 126.68 122 126 122 C126 118.37 126 114.74 126 111 C125.34 111 124.68 111 124 111 C124 110.34 124 109.68 124 109 C123.34 109 122.68 109 122 109 C122 108.01 122 107.02 122 106 C121.34 106 120.68 106 120 106 C120 105.34 120 104.68 120 104 C119.34 104 118.68 104 118 104 C116.81318274 100.43954823 116.90310168 97.56191663 116.9375 93.8125 C116.94652344 92.54019531 116.95554687 91.26789063 116.96484375 89.95703125 C116.97644531 88.98121094 116.98804687 88.00539063 117 87 C116.34 87 115.68 87 115 87 C114.34 85.35 113.68 83.7 113 82 C113.66 82 114.32 82 115 82 C115 78.04 115 74.08 115 70 C114.34 70 113.68 70 113 70 C113 69.01 113 68.02 113 67 C112.34 67 111.68 67 111 67 C111.495 71.95 111.495 71.95 112 77 C111.67 76.34 111.34 75.68 111 75 C110.34 75 109.68 75 109 75 C109 73.68 109 72.36 109 71 C108.34 71 107.68 71 107 71 C107 70.34 107 69.68 107 69 C106.34 69 105.68 69 105 69 C105 67.02 105 65.04 105 63 C105.66 63 106.32 63 107 63 C107 62.34 107 61.68 107 61 C106.34 61 105.68 61 105 61 C105 60.34 105 59.68 105 59 C102.36 58.67 99.72 58.34 97 58 C97 57.34 97 56.68 97 56 C96.01 56 95.02 56 94 56 C94 55.34 94 54.68 94 54 C92.68 54 91.36 54 90 54 C90 53.34 90 52.68 90 52 C89.01 52 88.02 52 87 52 C87 50.68 87 49.36 87 48 C88.32 48 89.64 48 91 48 C91.268125 47.46375 91.53625 46.9275 91.8125 46.375 C93.90625 42.1875 93.90625 42.1875 96 38 C95.34 37.67 94.68 37.34 94 37 C94.66 32.71 95.32 28.42 96 24 C96.66 24 97.32 24 98 24 C98 23.34 98 22.68 98 22 C97.34 22 96.68 22 96 22 C96 20.68 96 19.36 96 18 C96.66 18 97.32 18 98 18 C98 15.03 98 12.06 98 9 C97.34 9 96.68 9 96 9 C95.01 6.03 95.01 6.03 94 3 C87.474566 1.99607024 87.474566 1.99607024 81 3 C81 3.66 81 4.32 81 5 C80.01 5 79.02 5 78 5 C78 5.66 78 6.32 78 7 C76.68 7 75.36 7 74 7 C74 7.66 74 8.32 74 9 C73.34 9 72.68 9 72 9 C72 9.99 72 10.98 72 12 C71.34 12 70.68 12 70 12 C70 12.66 70 13.32 70 14 C69.34 14 68.68 14 68 14 C68 14.99 68 15.98 68 17 C67.34 17 66.68 17 66 17 C66 22.94 66 28.88 66 35 C65.34 35 64.68 35 64 35 C64 35.66 64 36.32 64 37 C63.34 37 62.68 37 62 37 C61.67 38.65 61.34 40.3 61 42 C52.585 42.495 52.585 42.495 44 43 C44.66 43.66 45.32 44.32 46 45 C46 45.99 46 46.98 46 48 C46.66 48 47.32 48 48 48 C47.51020408 54.48979592 47.51020408 54.48979592 45.0625 56.9375 C43 58 43 58 41 58 C41 58.99 41 59.98 41 61 C38.69 61 36.38 61 34 61 C34 61.66 34 62.32 34 63 C31.69 63 29.38 63 27 63 C27 63.66 27 64.32 27 65 C25.68 65 24.36 65 23 65 C23 65.66 23 66.32 23 67 C21.68 67 20.36 67 19 67 C19 66.34 19 65.68 19 65 C19.66 65 20.32 65 21 65 C21 62.69 21 60.38 21 58 C21.66 58 22.32 58 23 58 C23 55.69 23 53.38 23 51 C23.66 51 24.32 51 25 51 C25 49.68 25 48.36 25 47 C25.99 47 26.98 47 28 47 C28 46.34 28 45.68 28 45 C27.34 44.67 26.68 44.34 26 44 C26 44.66 26 45.32 26 46 C25.01 46 24.02 46 23 46 C23 46.66 23 47.32 23 48 C22.34 48 21.68 48 21 48 C21 48.66 21 49.32 21 50 C20.01 50 19.02 50 18 50 C18 51.98 18 53.96 18 56 C17.34 56 16.68 56 16 56 C16 58.97 16 61.94 16 65 C15.34 65 14.68 65 14 65 C14 65.66 14 66.32 14 67 C13.34 67 12.68 67 12 67 C12 67.99 12 68.98 12 70 C11.34 70 10.68 70 10 70 C10 71.32 10 72.64 10 74 C9.34 74 8.68 74 8 74 C8 77.63 8 81.26 8 85 C7.01 85 6.02 85 5 85 C5 86.65 5 88.3 5 90 C4.34 90 3.68 90 3 90 C3 92.64 3 95.28 3 98 C2.34 98 1.68 98 1 98 C1 104.6 1 111.2 1 118 C1.66 118 2.32 118 3 118 C3 119.98 3 121.96 3 124 C3.66 124 4.32 124 5 124 C5 125.32 5 126.64 5 128 C3.35 128 1.7 128 0 128 C0 85.76 0 43.52 0 0 Z " fill="#EEEEEE" transform="translate(0,0)"/>
<path d="M0 0 C0.66 0 1.32 0 2 0 C2.33 1.32 2.66 2.64 3 4 C4.98 3.67 6.96 3.34 9 3 C9 3.66 9 4.32 9 5 C9.66 5 10.32 5 11 5 C11 5.66 11 6.32 11 7 C11.99 7 12.98 7 14 7 C14.33 6.34 14.66 5.68 15 5 C15 5.66 15 6.32 15 7 C20.94 7.99 20.94 7.99 27 9 C27 9.66 27 10.32 27 11 C32.94 11 38.88 11 45 11 C45 11.66 45 12.32 45 13 C45.99 13 46.98 13 48 13 C48 13.66 48 14.32 48 15 C50.64 15.33 53.28 15.66 56 16 C56 16.66 56 17.32 56 18 C56.66 18 57.32 18 58 18 C58 18.66 58 19.32 58 20 C57.34 20 56.68 20 56 20 C56 21.98 56 23.96 56 26 C56.66 26 57.32 26 58 26 C58 26.66 58 27.32 58 28 C58.66 28 59.32 28 60 28 C60 29.32 60 30.64 60 32 C60.66 32 61.32 32 62 32 C62 29.36 62 26.72 62 24 C62.66 24 63.32 24 64 24 C64 24.99 64 25.98 64 27 C64.66 27 65.32 27 66 27 C66 32.66666667 66 38.33333333 66 44 C66.66 44 67.32 44 68 44 C68.495 52.415 68.495 52.415 69 61 C69.66 61 70.32 61 71 61 C71 61.66 71 62.32 71 63 C71.66 63 72.32 63 73 63 C73 63.99 73 64.98 73 66 C73.66 66 74.32 66 75 66 C75 66.66 75 67.32 75 68 C75.66 68 76.32 68 77 68 C77 71.63 77 75.26 77 79 C77.66 79 78.32 79 79 79 C79 80.98 79 82.96 79 85 C73.21593031 85.07410115 67.43213629 85.12857885 61.64770508 85.16479492 C59.67955717 85.17989082 57.71144294 85.20036948 55.7434082 85.22631836 C52.91609388 85.26266649 50.0892239 85.27971814 47.26171875 85.29296875 C46.38037766 85.30845261 45.49903656 85.32393646 44.59098816 85.33988953 C43.77036392 85.34011612 42.94973969 85.34034271 42.10424805 85.34057617 C41.02169991 85.35056892 41.02169991 85.35056892 39.9172821 85.36076355 C37.43290301 84.89329274 36.5305568 83.97394929 35 82 C35 81.34 35 80.68 35 80 C34.34 80 33.68 80 33 80 C32.67 78.02 32.34 76.04 32 74 C31.34 74 30.68 74 30 74 C29.67 72.02 29.34 70.04 29 68 C31.70879335 66.64560332 34.00933268 66.93498549 37 67 C36.67 65.68 36.34 64.36 36 63 C35.01 63 34.02 63 33 63 C33 62.34 33 61.68 33 61 C32.34 61 31.68 61 31 61 C30.505 58.525 30.505 58.525 30 56 C32.97 55.505 32.97 55.505 36 55 C36 54.01 36 53.02 36 52 C34.35 51.67 32.7 51.34 31 51 C31 50.34 31 49.68 31 49 C30.34 49 29.68 49 29 49 C29 48.34 29 47.68 29 47 C28.34 47 27.68 47 27 47 C27 46.01 27 45.02 27 44 C29.97 44 32.94 44 36 44 C36 44.66 36 45.32 36 46 C37.65 46 39.3 46 41 46 C41 45.34 41 44.68 41 44 C43.475 43.505 43.475 43.505 46 43 C46 42.01 46 41.02 46 40 C46.99 40 47.98 40 49 40 C49 39.34 49 38.68 49 38 C50.32 38 51.64 38 53 38 C53 37.34 53 36.68 53 36 C55.97 35.505 55.97 35.505 59 35 C59 33.35 59 31.7 59 30 C58.34 30 57.68 30 57 30 C57 29.01 57 28.02 57 27 C56.34 27 55.68 27 55 27 C55 27.99 55 28.98 55 30 C53.68 30 52.36 30 51 30 C51 30.99 51 31.98 51 33 C49.68 33 48.36 33 47 33 C47 33.66 47 34.32 47 35 C46.34 35 45.68 35 45 35 C45 35.66 45 36.32 45 37 C38.375 38.125 38.375 38.125 35 37 C32.8125 35.0625 32.8125 35.0625 31 33 C31 32.34 31 31.68 31 31 C30.01 31 29.02 31 28 31 C28 30.01 28 29.02 28 28 C26.35 28 24.7 28 23 28 C23 27.34 23 26.68 23 26 C21.35 26 19.7 26 18 26 C18 25.34 18 24.68 18 24 C16.02 24 14.04 24 12 24 C12 23.34 12 22.68 12 22 C11.01 22 10.02 22 9 22 C9 20.68 9 19.36 9 18 C8.34 18 7.68 18 7 18 C7 15.36 7 12.72 7 10 C6.34 10 5.68 10 5 10 C5 9.01 5 8.02 5 7 C4.34 7 3.68 7 3 7 C3 6.34 3 5.68 3 5 C2.34 5 1.68 5 1 5 C0.67 3.35 0.34 1.7 0 0 Z " fill="#3C3C3B" transform="translate(49,43)"/>
<path d="M0 0 C12.87 0 25.74 0 39 0 C39 40.26 39 80.52 39 122 C38.34 122 37.68 122 37 122 C37 118.37 37 114.74 37 111 C36.34 111 35.68 111 35 111 C35 110.34 35 109.68 35 109 C34.34 109 33.68 109 33 109 C33 108.01 33 107.02 33 106 C32.34 106 31.68 106 31 106 C31 105.34 31 104.68 31 104 C30.34 104 29.68 104 29 104 C27.81318274 100.43954823 27.90310168 97.56191663 27.9375 93.8125 C27.94652344 92.54019531 27.95554687 91.26789063 27.96484375 89.95703125 C27.97644531 88.98121094 27.98804687 88.00539063 28 87 C27.34 87 26.68 87 26 87 C25.34 85.35 24.68 83.7 24 82 C24.66 82 25.32 82 26 82 C26 78.04 26 74.08 26 70 C25.34 70 24.68 70 24 70 C24 69.01 24 68.02 24 67 C23.34 67 22.68 67 22 67 C22.33 70.3 22.66 73.6 23 77 C22.505 76.01 22.505 76.01 22 75 C21.34 75 20.68 75 20 75 C20 73.68 20 72.36 20 71 C19.34 71 18.68 71 18 71 C18 70.34 18 69.68 18 69 C17.34 69 16.68 69 16 69 C16 67.02 16 65.04 16 63 C16.66 63 17.32 63 18 63 C18 62.34 18 61.68 18 61 C17.34 61 16.68 61 16 61 C16 60.34 16 59.68 16 59 C13.36 58.67 10.72 58.34 8 58 C8 57.34 8 56.68 8 56 C7.01 56 6.02 56 5 56 C5 55.34 5 54.68 5 54 C3.68 54 2.36 54 1 54 C1 53.34 1 52.68 1 52 C0.01 52 -0.98 52 -2 52 C-2 50.68 -2 49.36 -2 48 C-0.68 48 0.64 48 2 48 C2.268125 47.46375 2.53625 46.9275 2.8125 46.375 C4.20833333 43.58333333 5.60416667 40.79166667 7 38 C6.34 37.67 5.68 37.34 5 37 C5.66 32.71 6.32 28.42 7 24 C7.66 24 8.32 24 9 24 C9 23.34 9 22.68 9 22 C8.34 22 7.68 22 7 22 C7 20.68 7 19.36 7 18 C7.66 18 8.32 18 9 18 C9 15.03 9 12.06 9 9 C8.34 9 7.68 9 7 9 C6.6596875 7.576875 6.6596875 7.576875 6.3125 6.125 C5.30916286 2.80676612 5.30916286 2.80676612 2.375 1.625 C1.59125 1.41875 0.8075 1.2125 0 1 C0 0.67 0 0.34 0 0 Z " fill="#EFEFEF" transform="translate(89,0)"/>
<path d="M0 0 C-0.33 1.32 -0.66 2.64 -1 4 C-1.66 4 -2.32 4 -3 4 C-3 6.31 -3 8.62 -3 11 C-3.66 11 -4.32 11 -5 11 C-5 12.65 -5 14.3 -5 16 C-5.66 16 -6.32 16 -7 16 C-6.54177532 19.46941546 -6.10868317 22.67395049 -5 26 C-4.34 26 -3.68 26 -3 26 C-2.67 27.98 -2.34 29.96 -2 32 C-1.34 32 -0.68 32 0 32 C0 32.66 0 33.32 0 34 C0.66 34 1.32 34 2 34 C2 34.99 2 35.98 2 37 C2.66 37 3.32 37 4 37 C4 37.99 4 38.98 4 40 C4.66 40 5.32 40 6 40 C6 41.32 6 42.64 6 44 C6.99 44 7.98 44 9 44 C9 47.3 9 50.6 9 54 C8.34 54 7.68 54 7 54 C7 55.98 7 57.96 7 60 C6.34 60 5.68 60 5 60 C5 60.66 5 61.32 5 62 C-2.59 62 -10.18 62 -18 62 C-18 58.7 -18 55.4 -18 52 C-17.34 52 -16.68 52 -16 52 C-16 46.39 -16 40.78 -16 35 C-16.66 35 -17.32 35 -18 35 C-18 33.68 -18 32.36 -18 31 C-17.34 31 -16.68 31 -16 31 C-16 30.34 -16 29.68 -16 29 C-17.32 29.33 -18.64 29.66 -20 30 C-20 29.01 -20 28.02 -20 27 C-20.66 27 -21.32 27 -22 27 C-22.66 24.69 -23.32 22.38 -24 20 C-24.66 20 -25.32 20 -26 20 C-26 17.36 -26 14.72 -26 12 C-25.34 12 -24.68 12 -24 12 C-23.9175 11.38125 -23.835 10.7625 -23.75 10.125 C-23 8 -23 8 -20.9375 6.75 C-20.298125 6.5025 -19.65875 6.255 -19 6 C-19 5.34 -19 4.68 -19 4 C-13.95935135 -0.03251892 -6.21316012 -2.00887394 0 0 Z " fill="#EDEDEC" transform="translate(44,66)"/>
<path d="M0 0 C0.66 0 1.32 0 2 0 C2 0.66 2 1.32 2 2 C2.66 2 3.32 2 4 2 C4 2.66 4 3.32 4 4 C4.66 4 5.32 4 6 4 C6 4.66 6 5.32 6 6 C8.97 6.495 8.97 6.495 12 7 C12 7.66 12 8.32 12 9 C13.65 9 15.3 9 17 9 C17 9.66 17 10.32 17 11 C18.11375 11.144375 19.2275 11.28875 20.375 11.4375 C24 12 24 12 26 13 C26 13.99 26 14.98 26 16 C26.66 16 27.32 16 28 16 C28.495 17.485 28.495 17.485 29 19 C29.66 19.66 30.32 20.32 31 21 C28.69 21 26.38 21 24 21 C24 21.99 24 22.98 24 24 C24.66 24 25.32 24 26 24 C26 24.66 26 25.32 26 26 C26.66 26 27.32 26 28 26 C28.495 26.99 28.495 26.99 29 28 C31.02463255 28.65213292 31.02463255 28.65213292 33 29 C33.495 30.98 33.495 30.98 34 33 C31.69 33 29.38 33 27 33 C27.495 35.475 27.495 35.475 28 38 C28.66 38 29.32 38 30 38 C30 38.66 30 39.32 30 40 C30.99 40 31.98 40 33 40 C33.495 41.98 33.495 41.98 34 44 C31.36 44.33 28.72 44.66 26 45 C26.495 47.97 26.495 47.97 27 51 C27.66 51 28.32 51 29 51 C29.495 53.97 29.495 53.97 30 57 C30.66 57 31.32 57 32 57 C32.12375 57.639375 32.2475 58.27875 32.375 58.9375 C32.58125 59.618125 32.7875 60.29875 33 61 C33.99 61.495 33.99 61.495 35 62 C22.46 62 9.92 62 -3 62 C-3 61.34 -3 60.68 -3 60 C-2.34 60 -1.68 60 -1 60 C-1 58.02 -1 56.04 -1 54 C-0.34 54 0.32 54 1 54 C1 50.7 1 47.4 1 44 C0.01 44 -0.98 44 -2 44 C-2 42.68 -2 41.36 -2 40 C-2.66 40 -3.32 40 -4 40 C-4 39.01 -4 38.02 -4 37 C-4.66 37 -5.32 37 -6 37 C-6 36.01 -6 35.02 -6 34 C-6.66 34 -7.32 34 -8 34 C-8 33.34 -8 32.68 -8 32 C-8.66 32 -9.32 32 -10 32 C-9.505 30.515 -9.505 30.515 -9 29 C-9 29.66 -9 30.32 -9 31 C-8.34 31 -7.68 31 -7 31 C-6.67 30.01 -6.34 29.02 -6 28 C-5.34 28 -4.68 28 -4 28 C-4 27.34 -4 26.68 -4 26 C-3.34 26 -2.68 26 -2 26 C-2 25.34 -2 24.68 -2 24 C-0.35 24 1.3 24 3 24 C3 24.66 3 25.32 3 26 C3.99 26 4.98 26 6 26 C6 26.66 6 27.32 6 28 C6.99 28 7.98 28 9 28 C9 28.99 9 29.98 9 31 C9.99 31 10.98 31 12 31 C12 31.66 12 32.32 12 33 C12.66 33 13.32 33 14 33 C14 33.66 14 34.32 14 35 C14.66 35 15.32 35 16 35 C16 35.66 16 36.32 16 37 C16.99 37 17.98 37 19 37 C19 37.66 19 38.32 19 39 C20.65 39.33 22.3 39.66 24 40 C24 40.66 24 41.32 24 42 C24.99 42 25.98 42 27 42 C27 41.34 27 40.68 27 40 C26.34 40 25.68 40 25 40 C25 39.01 25 38.02 25 37 C24.34 37 23.68 37 23 37 C23 35.68 23 34.36 23 33 C22.34 33 21.68 33 21 33 C21 32.01 21 31.02 21 30 C21.66 30 22.32 30 23 30 C23 30.66 23 31.32 23 32 C25.64 32 28.28 32 31 32 C31 31.34 31 30.68 31 30 C29.741875 29.855625 28.48375 29.71125 27.1875 29.5625 C20.87118392 28.83767684 20.87118392 28.83767684 18.375 26.4375 C16.42333444 22.97772923 16.32900578 19.94806937 16 16 C15.01 16 14.02 16 13 16 C13 15.01 13 14.02 13 13 C10.66785852 11.79371992 8.50357861 10.8345262 6 10 C6 9.34 6 8.68 6 8 C5.34 8 4.68 8 4 8 C4 7.34 4 6.68 4 6 C3.34 6 2.68 6 2 6 C2 5.34 2 4.68 2 4 C1.34 4 0.68 4 0 4 C0 2.68 0 1.36 0 0 Z " fill="#5F5F5E" transform="translate(52,66)"/>
<path d="M0 0 C2 3 2 3 2 7 C2.66 7 3.32 7 4 7 C4 9.97 4 12.94 4 16 C3.34 16 2.68 16 2 16 C2 17.32 2 18.64 2 20 C2.66 20 3.32 20 4 20 C4 20.66 4 21.32 4 22 C3.34 22 2.68 22 2 22 C1.80438131 24.0825867 1.61880687 26.16611856 1.4375 28.25 C1.33308594 29.41015625 1.22867188 30.5703125 1.12109375 31.765625 C1.0160781 34.57055908 1.32531827 36.34861916 2 39 C0.6875 41.75 0.6875 41.75 -2 44 C-5.37292855 44.42755432 -8.61889171 44.29036235 -12 44 C-12 43.34 -12 42.68 -12 42 C-12.99 42 -13.98 42 -15 42 C-15.33 40.68 -15.66 39.36 -16 38 C-16.66 38 -17.32 38 -18 38 C-18.103125 36.906875 -18.20625 35.81375 -18.3125 34.6875 C-18.99727202 31.01463192 -19.27919304 30.24762314 -22 28 C-22 27.34 -22 26.68 -22 26 C-21.34 26 -20.68 26 -20 26 C-20 23.69 -20 21.38 -20 19 C-21.32 18.67 -22.64 18.34 -24 18 C-24 19.32 -24 20.64 -24 22 C-24.66 22 -25.32 22 -26 22 C-26 20.02 -26 18.04 -26 16 C-26.66 15.67 -27.32 15.34 -28 15 C-27.34 15 -26.68 15 -26 15 C-26 14.01 -26 13.02 -26 12 C-25.34 12 -24.68 12 -24 12 C-24 11.34 -24 10.68 -24 10 C-23.34 10 -22.68 10 -22 10 C-22 9.01 -22 8.02 -22 7 C-21.34 7 -20.68 7 -20 7 C-20 6.34 -20 5.68 -20 5 C-18.68 5 -17.36 5 -16 5 C-16 4.34 -16 3.68 -16 3 C-15.01 3 -14.02 3 -13 3 C-13 2.34 -13 1.68 -13 1 C-8.30520636 -1.49410912 -5.05541813 -1.07738419 0 0 Z " fill="#5B5A59" transform="translate(94,2)"/>
<path d="M0 0 C2.475 0.99 2.475 0.99 5 2 C5 2.99 5 3.98 5 5 C5.99 5 6.98 5 8 5 C8.33 4.34 8.66 3.68 9 3 C9.66 3 10.32 3 11 3 C11 3.66 11 4.32 11 5 C11.66 5 12.32 5 13 5 C13 5.66 13 6.32 13 7 C13.99 7.33 14.98 7.66 16 8 C16 9.65 16 11.3 16 13 C16.66 13 17.32 13 18 13 C18.33 11.68 18.66 10.36 19 9 C19 10.32 19 11.64 19 13 C19.66 13 20.32 13 21 13 C21 18.61 21 24.22 21 30 C20.34 30 19.68 30 19 30 C19 33.3 19 36.6 19 40 C12.07 40 5.14 40 -2 40 C-2 38.68 -2 37.36 -2 36 C-2.66 36 -3.32 36 -4 36 C-4 34.02 -4 32.04 -4 30 C-4.66 30 -5.32 30 -6 30 C-6 23.4 -6 16.8 -6 10 C-5.34 10 -4.68 10 -4 10 C-4 7.36 -4 4.72 -4 2 C-2.68 2 -1.36 2 0 2 C0 1.34 0 0.68 0 0 Z " fill="#3B3B3A" transform="translate(7,88)"/>
<path d="M0 0 C0.66 0 1.32 0 2 0 C2 5.61 2 11.22 2 17 C2.66 17 3.32 17 4 17 C4.66 20.3 5.32 23.6 6 27 C6.66 26.01 7.32 25.02 8 24 C8.66 24 9.32 24 10 24 C10 22.35 10 20.7 10 19 C10.66 19 11.32 19 12 19 C12 14.05 12 9.1 12 4 C12.33 4 12.66 4 13 4 C13 8.29 13 12.58 13 17 C13.66 17 14.32 17 15 17 C15 17.99 15 18.98 15 20 C15.66 20 16.32 20 17 20 C17 20.66 17 21.32 17 22 C17.66 22 18.32 22 19 22 C19 22.99 19 23.98 19 25 C19.66 25 20.32 25 21 25 C21 25.66 21 26.32 21 27 C21.66 27 22.32 27 23 27 C23 30.63 23 34.26 23 38 C23.66 38 24.32 38 25 38 C25 39.98 25 41.96 25 44 C12.79 44 0.58 44 -12 44 C-11.01 43.505 -11.01 43.505 -10 43 C-9.34444881 40.47266765 -9.34444881 40.47266765 -9 38 C-8.34 38 -7.68 38 -7 38 C-7 37.01 -7 36.02 -7 35 C-6.34 35 -5.68 35 -5 35 C-5 30.71 -5 26.42 -5 22 C-5.66 22 -6.32 22 -7 22 C-7 20.35 -7 18.7 -7 17 C-6.34 17 -5.68 17 -5 17 C-5.33 15.02 -5.66 13.04 -6 11 C-5.01 10.67 -4.02 10.34 -3 10 C-2.87625 8.906875 -2.7525 7.81375 -2.625 6.6875 C-2 3 -2 3 0 0 Z " fill="#141413" transform="translate(103,84)"/>
<path d="M0 0 C1 3 1 3 -0.375 5.875 C-0.91125 6.90625 -1.4475 7.9375 -2 9 C-2.185625 9.928125 -2.37125 10.85625 -2.5625 11.8125 C-2.706875 12.534375 -2.85125 13.25625 -3 14 C-3.99 14.495 -3.99 14.495 -5 15 C-5 16.98 -5 18.96 -5 21 C-5.66 21 -6.32 21 -7 21 C-7 22.65 -7 24.3 -7 26 C-6.34 26 -5.68 26 -5 26 C-4.67 25.34 -4.34 24.68 -4 24 C-3.97284617 25.74991334 -3.95353449 27.49994945 -3.9375 29.25 C-3.92589844 30.22453125 -3.91429688 31.1990625 -3.90234375 32.203125 C-3.98804423 34.65758678 -4.29293934 36.66168914 -5 39 C-5.66 39 -6.32 39 -7 39 C-7 39.99 -7 40.98 -7 42 C-7.66 42 -8.32 42 -9 42 C-9.33 43.65 -9.66 45.3 -10 47 C-12.8125 47.6875 -12.8125 47.6875 -16 48 C-17.875 46.6875 -17.875 46.6875 -19 45 C-19 44.34 -19 43.68 -19 43 C-19.66 43 -20.32 43 -21 43 C-21.33 41.02 -21.66 39.04 -22 37 C-22.66 37 -23.32 37 -24 37 C-24.33 35.02 -24.66 33.04 -25 31 C-22.29120665 29.64560332 -19.99066732 29.93498549 -17 30 C-17.33 28.68 -17.66 27.36 -18 26 C-18.99 26 -19.98 26 -21 26 C-21 25.34 -21 24.68 -21 24 C-21.66 24 -22.32 24 -23 24 C-23.33 22.35 -23.66 20.7 -24 19 C-22.02 18.67 -20.04 18.34 -18 18 C-18 17.01 -18 16.02 -18 15 C-19.65 14.67 -21.3 14.34 -23 14 C-23 13.34 -23 12.68 -23 12 C-23.66 12 -24.32 12 -25 12 C-25 11.34 -25 10.68 -25 10 C-25.66 10 -26.32 10 -27 10 C-27 9.01 -27 8.02 -27 7 C-24.03 7 -21.06 7 -18 7 C-18 7.66 -18 8.32 -18 9 C-16.35 9 -14.7 9 -13 9 C-13 8.34 -13 7.68 -13 7 C-11.35 6.67 -9.7 6.34 -8 6 C-8 5.01 -8 4.02 -8 3 C-5.36 2.67 -2.72 2.34 0 2 C0 1.34 0 0.68 0 0 Z " fill="#737373" transform="translate(103,80)"/>
<path d="M0 0 C0.66 0 1.32 0 2 0 C2 0.99 2 1.98 2 3 C2.66 3 3.32 3 4 3 C4 3.99 4 4.98 4 6 C5.98 6.66 7.96 7.32 10 8 C10 8.66 10 9.32 10 10 C10.66 10 11.32 10 12 10 C12 10.99 12 11.98 12 13 C12.99 13 13.98 13 15 13 C15 13.66 15 14.32 15 15 C15.99 15 16.98 15 18 15 C18 15.66 18 16.32 18 17 C18.99 17 19.98 17 21 17 C21 17.66 21 18.32 21 19 C21.99 19 22.98 19 24 19 C24 19.66 24 20.32 24 21 C24.66 21 25.32 21 26 21 C26 21.66 26 22.32 26 23 C26.66 23 27.32 23 28 23 C28 23.66 28 24.32 28 25 C29.32 25.33 30.64 25.66 32 26 C32.185625 26.9590625 32.185625 26.9590625 32.375 27.9375 C32.58125 28.618125 32.7875 29.29875 33 30 C33.66 30.33 34.32 30.66 35 31 C22.46 31 9.92 31 -3 31 C-3 30.34 -3 29.68 -3 29 C-2.34 29 -1.68 29 -1 29 C-1 27.02 -1 25.04 -1 23 C-0.34 23 0.32 23 1 23 C1 19.7 1 16.4 1 13 C0.01 13 -0.98 13 -2 13 C-3.125 5.375 -3.125 5.375 -2 2 C-1.34 2 -0.68 2 0 2 C0 1.34 0 0.68 0 0 Z " fill="#141413" transform="translate(52,97)"/>
<path d="M0 0 C0.66 0 1.32 0 2 0 C2.33 1.32 2.66 2.64 3 4 C4.98 3.67 6.96 3.34 9 3 C9 3.66 9 4.32 9 5 C9.66 5 10.32 5 11 5 C11 5.66 11 6.32 11 7 C11.99 7 12.98 7 14 7 C14.33 6.34 14.66 5.68 15 5 C15 5.66 15 6.32 15 7 C20.94 7.99 20.94 7.99 27 9 C27 9.66 27 10.32 27 11 C32.94 11 38.88 11 45 11 C45 11.66 45 12.32 45 13 C45.99 13 46.98 13 48 13 C48 13.66 48 14.32 48 15 C47.34 15 46.68 15 46 15 C45.67 16.32 45.34 17.64 45 19 C44.01 19 43.02 19 42 19 C42 18.01 42 17.02 42 16 C39.36 16 36.72 16 34 16 C34 18.64 34 21.28 34 24 C34.66 24 35.32 24 36 24 C36.495 25.98 36.495 25.98 37 28 C37.66 28 38.32 28 39 28 C39 30.64 39 33.28 39 36 C38.67 35.34 38.34 34.68 38 34 C37.34 34 36.68 34 36 34 C35.67 33.01 35.34 32.02 35 31 C34.34 30.67 33.68 30.34 33 30 C33 29.01 33 28.02 33 27 C30.69 26.67 28.38 26.34 26 26 C26 25.34 26 24.68 26 24 C24.7625 23.855625 23.525 23.71125 22.25 23.5625 C19.43495501 23.21311498 16.7298503 22.79620634 14 22 C14 21.34 14 20.68 14 20 C13.01 20 12.02 20 11 20 C9.57741188 16.17679443 8.75957724 13.08718695 9 9 C8.34 9 7.68 9 7 9 C7 7.68 7 6.36 7 5 C5.02 5 3.04 5 1 5 C0.67 3.35 0.34 1.7 0 0 Z " fill="#434342" transform="translate(49,43)"/>
<path d="M0 0 C-0.33 1.32 -0.66 2.64 -1 4 C-1.66 4 -2.32 4 -3 4 C-3 6.31 -3 8.62 -3 11 C-3.66 11 -4.32 11 -5 11 C-5 12.65 -5 14.3 -5 16 C-5.66 16 -6.32 16 -7 16 C-6.67 18.64 -6.34 21.28 -6 24 C-7.65 24.33 -9.3 24.66 -11 25 C-11 25.66 -11 26.32 -11 27 C-11.66 27 -12.32 27 -13 27 C-13 27.66 -13 28.32 -13 29 C-15.31 29.33 -17.62 29.66 -20 30 C-20 29.01 -20 28.02 -20 27 C-20.66 27 -21.32 27 -22 27 C-22.66 24.69 -23.32 22.38 -24 20 C-24.66 20 -25.32 20 -26 20 C-26 17.36 -26 14.72 -26 12 C-25.34 12 -24.68 12 -24 12 C-23.9175 11.38125 -23.835 10.7625 -23.75 10.125 C-23 8 -23 8 -20.9375 6.75 C-20.298125 6.5025 -19.65875 6.255 -19 6 C-19 5.34 -19 4.68 -19 4 C-13.95935135 -0.03251892 -6.21316012 -2.00887394 0 0 Z " fill="#646463" transform="translate(44,66)"/>
<path d="M0 0 C1.84658203 0.11794922 1.84658203 0.11794922 3.73046875 0.23828125 C6.8125 0.6875 6.8125 0.6875 8.8125 2.6875 C8.8125 3.6775 8.8125 4.6675 8.8125 5.6875 C9.4725 5.6875 10.1325 5.6875 10.8125 5.6875 C10.32270408 12.17729592 10.32270408 12.17729592 7.875 14.625 C5.8125 15.6875 5.8125 15.6875 3.8125 15.6875 C3.8125 16.6775 3.8125 17.6675 3.8125 18.6875 C1.5025 18.6875 -0.8075 18.6875 -3.1875 18.6875 C-3.1875 19.3475 -3.1875 20.0075 -3.1875 20.6875 C-5.4975 20.6875 -7.8075 20.6875 -10.1875 20.6875 C-10.1875 21.3475 -10.1875 22.0075 -10.1875 22.6875 C-11.5075 22.6875 -12.8275 22.6875 -14.1875 22.6875 C-14.1875 23.3475 -14.1875 24.0075 -14.1875 24.6875 C-15.5075 24.6875 -16.8275 24.6875 -18.1875 24.6875 C-18.1875 24.0275 -18.1875 23.3675 -18.1875 22.6875 C-17.5275 22.6875 -16.8675 22.6875 -16.1875 22.6875 C-16.1875 20.3775 -16.1875 18.0675 -16.1875 15.6875 C-15.5275 15.6875 -14.8675 15.6875 -14.1875 15.6875 C-14.1875 13.3775 -14.1875 11.0675 -14.1875 8.6875 C-13.5275 8.6875 -12.8675 8.6875 -12.1875 8.6875 C-12.1875 7.3675 -12.1875 6.0475 -12.1875 4.6875 C-11.1975 4.6875 -10.2075 4.6875 -9.1875 4.6875 C-9.1875 4.0275 -9.1875 3.3675 -9.1875 2.6875 C-9.8475 2.3575 -10.5075 2.0275 -11.1875 1.6875 C-11.1875 2.3475 -11.1875 3.0075 -11.1875 3.6875 C-12.1775 3.3575 -13.1675 3.0275 -14.1875 2.6875 C-13.5275 2.6875 -12.8675 2.6875 -12.1875 2.6875 C-12.1875 2.0275 -12.1875 1.3675 -12.1875 0.6875 C-8.00307069 -0.37255542 -4.29440009 -0.30318736 0 0 Z " fill="#646463" transform="translate(37.1875,42.3125)"/>
<path d="M0 0 C0.66 0 1.32 0 2 0 C2 0.66 2 1.32 2 2 C3.32 2.33 4.64 2.66 6 3 C6 3.99 6 4.98 6 6 C6.99 6 7.98 6 9 6 C11.44989101 9.74235319 11.23086143 13.44225419 11.125 17.75 C11.11597656 18.44738281 11.10695313 19.14476563 11.09765625 19.86328125 C11.07419888 21.57566958 11.03833104 23.28788004 11 25 C11.66 25 12.32 25 13 25 C13 27.31 13 29.62 13 32 C13.66 32 14.32 32 15 32 C15 33.65 15 35.3 15 37 C10.71 37 6.42 37 2 37 C2 35.68 2 34.36 2 33 C1.34 33 0.68 33 0 33 C0 31.02 0 29.04 0 27 C-0.66 27 -1.32 27 -2 27 C-2 20.4 -2 13.8 -2 7 C-1.34 7 -0.68 7 0 7 C0 4.69 0 2.38 0 0 Z " fill="#121210" transform="translate(3,91)"/>
<path d="M0 0 C2.64 0.33 5.28 0.66 8 1 C8 1.66 8 2.32 8 3 C8.66 3 9.32 3 10 3 C10 3.66 10 4.32 10 5 C9.34 5 8.68 5 8 5 C8 6.98 8 8.96 8 11 C8.66 11 9.32 11 10 11 C10 11.66 10 12.32 10 13 C10.66 13 11.32 13 12 13 C12 14.32 12 15.64 12 17 C12.66 17 13.32 17 14 17 C14 14.36 14 11.72 14 9 C14.66 9 15.32 9 16 9 C16 9.99 16 10.98 16 12 C16.66 12 17.32 12 18 12 C18 17.66666667 18 23.33333333 18 29 C18.66 29 19.32 29 20 29 C20 33.62 20 38.24 20 43 C18.68 43.66 17.36 44.32 16 45 C16 46.65 16 48.3 16 50 C15.34 50 14.68 50 14 50 C13.34 51.32 12.68 52.64 12 54 C11.67 54 11.34 54 11 54 C10.67 50.37 10.34 46.74 10 43 C9.34 43 8.68 43 8 43 C8 37.39 8 31.78 8 26 C7.34 25.67 6.68 25.34 6 25 C6 24.67 6 24.34 6 24 C4.35 24 2.7 24 1 24 C2.32 23.67 3.64 23.34 5 23 C5 22.34 5 21.68 5 21 C6.98 20.67 8.96 20.34 11 20 C11 18.35 11 16.7 11 15 C10.34 15 9.68 15 9 15 C9 14.01 9 13.02 9 12 C8.34 12 7.68 12 7 12 C6.67 12.99 6.34 13.98 6 15 C6 11.7 6 8.4 6 5 C5.34 5 4.68 5 4 5 C3.896875 4.360625 3.79375 3.72125 3.6875 3.0625 C3.460625 2.381875 3.23375 1.70125 3 1 C2.01 0.67 1.02 0.34 0 0 Z " fill="#686867" transform="translate(97,58)"/>
<path d="M0 0 C0.33 0 0.66 0 1 0 C1 1.65 1 3.3 1 5 C0.34 5 -0.32 5 -1 5 C-1.02902168 9.41665288 -1.04680608 13.83328123 -1.0625 18.25 C-1.07087891 19.50425781 -1.07925781 20.75851563 -1.08789062 22.05078125 C-1.09111328 23.25605469 -1.09433594 24.46132812 -1.09765625 25.703125 C-1.10289307 26.81333008 -1.10812988 27.92353516 -1.11352539 29.06738281 C-1.01658493 31.57157379 -0.73230276 33.6181156 0 36 C0.99 36 1.98 36 3 36 C3 37.32 3 38.64 3 40 C3.66 40 4.32 40 5 40 C5 39.34 5 38.68 5 38 C6.98 37.34 8.96 36.68 11 36 C11 35.34 11 34.68 11 34 C11.66 34 12.32 34 13 34 C13 33.34 13 32.68 13 32 C13.639375 31.896875 14.27875 31.79375 14.9375 31.6875 C15.618125 31.460625 16.29875 31.23375 17 31 C17.33 30.01 17.66 29.02 18 28 C18.66 28 19.32 28 20 28 C20.33 26.35 20.66 24.7 21 23 C21.495 23.99 21.495 23.99 22 25 C22.66 25 23.32 25 24 25 C24 28.63 24 32.26 24 36 C24.66 36 25.32 36 26 36 C26 37.98 26 39.96 26 42 C13.79 42 1.58 42 -11 42 C-10.01 41.505 -10.01 41.505 -9 41 C-8.34444881 38.47266765 -8.34444881 38.47266765 -8 36 C-7.34 36 -6.68 36 -6 36 C-6 35.01 -6 34.02 -6 33 C-5.34 33 -4.68 33 -4 33 C-4 28.71 -4 24.42 -4 20 C-4.66 20 -5.32 20 -6 20 C-6 18.35 -6 16.7 -6 15 C-5.34 15 -4.68 15 -4 15 C-4.33 13.02 -4.66 11.04 -5 9 C-4.01 8.67 -3.02 8.34 -2 8 C-1.855625 6.865625 -1.71125 5.73125 -1.5625 4.5625 C-1 1 -1 1 0 0 Z " fill="#434342" transform="translate(102,86)"/>
<path d="M0 0 C0.33 0 0.66 0 1 0 C1.02715383 1.74991334 1.04646551 3.49994945 1.0625 5.25 C1.07410156 6.22453125 1.08570312 7.1990625 1.09765625 8.203125 C1.01195577 10.65758678 0.70706066 12.66168914 0 15 C-0.66 15 -1.32 15 -2 15 C-2 15.99 -2 16.98 -2 18 C-2.66 18 -3.32 18 -4 18 C-4.33 19.65 -4.66 21.3 -5 23 C-7.8125 23.6875 -7.8125 23.6875 -11 24 C-12.875 22.6875 -12.875 22.6875 -14 21 C-14 20.34 -14 19.68 -14 19 C-14.66 19 -15.32 19 -16 19 C-16.33 17.02 -16.66 15.04 -17 13 C-17.66 13 -18.32 13 -19 13 C-19.33 11.02 -19.66 9.04 -20 7 C-16.75 6.3125 -16.75 6.3125 -13 6 C-10.8125 7.5 -10.8125 7.5 -9 9 C-6.79199472 8.78282648 -6.79199472 8.78282648 -5 8 C-4.67 6.68 -4.34 5.36 -4 4 C-3.34 4 -2.68 4 -2 4 C-2 3.34 -2 2.68 -2 2 C-1.34 2 -0.68 2 0 2 C0 1.34 0 0.68 0 0 Z " fill="#BFBFBF" transform="translate(98,104)"/>
<path d="M0 0 C2 3 2 3 2 7 C2.66 7 3.32 7 4 7 C4 9.97 4 12.94 4 16 C3.34 16 2.68 16 2 16 C2 17.32 2 18.64 2 20 C2.66 20 3.32 20 4 20 C4 20.66 4 21.32 4 22 C0.2647526 20.75491753 -0.60058531 19.05380051 -3 16 C-3.7425 15.46375 -4.485 14.9275 -5.25 14.375 C-5.8275 13.92125 -6.405 13.4675 -7 13 C-7 12.01 -7 11.02 -7 10 C-7.66 10 -8.32 10 -9 10 C-9 9.34 -9 8.68 -9 8 C-10.98 7.34 -12.96 6.68 -15 6 C-15 5.34 -15 4.68 -15 4 C-14.34 4 -13.68 4 -13 4 C-13 3.01 -13 2.02 -13 1 C-8.30520636 -1.49410912 -5.05541813 -1.07738419 0 0 Z " fill="#5F6060" transform="translate(94,2)"/>
<path d="M0 0 C0 1.98 0 3.96 0 6 C-0.66 6 -1.32 6 -2 6 C-2.33 8.64 -2.66 11.28 -3 14 C-3.66 14 -4.32 14 -5 14 C-5.0825 14.61875 -5.165 15.2375 -5.25 15.875 C-6 18 -6 18 -7.8125 19.3125 C-10.32299678 20.10151327 -11.55492066 19.87324262 -14 19 C-14 18.34 -14 17.68 -14 17 C-14.66 17 -15.32 17 -16 17 C-15.67 13.7 -15.34 10.4 -15 7 C-14.34 7 -13.68 7 -13 7 C-13 6.01 -13 5.02 -13 4 C-9.54109844 -0.49657203 -5.31709523 -0.12084307 0 0 Z " fill="#BFBEBE" transform="translate(39,69)"/>
<path d="M0 0 C2.475 0.99 2.475 0.99 5 2 C5 2.99 5 3.98 5 5 C5.99 5 6.98 5 8 5 C8.33 4.34 8.66 3.68 9 3 C9.66 3 10.32 3 11 3 C11 3.66 11 4.32 11 5 C11.66 5 12.32 5 13 5 C13 5.66 13 6.32 13 7 C13.99 7.33 14.98 7.66 16 8 C16 9.65 16 11.3 16 13 C16.66 13 17.32 13 18 13 C18.33 11.68 18.66 10.36 19 9 C19 10.32 19 11.64 19 13 C19.66 13 20.32 13 21 13 C21 18.61 21 24.22 21 30 C20.67 30 20.34 30 20 30 C19.67 27.36 19.34 24.72 19 22 C18.01 22 17.02 22 16 22 C15.67 20.68 15.34 19.36 15 18 C14.34 18 13.68 18 13 18 C13 17.34 13 16.68 13 16 C11.68 16 10.36 16 9 16 C9 15.01 9 14.02 9 13 C8.01 13 7.02 13 6 13 C5.67 11.68 5.34 10.36 5 9 C4.01 9 3.02 9 2 9 C2 8.01 2 7.02 2 6 C0.68 5.67 -0.64 5.34 -2 5 C-2 4.34 -2 3.68 -2 3 C-2.66 2.67 -3.32 2.34 -4 2 C-2.68 2 -1.36 2 0 2 C0 1.34 0 0.68 0 0 Z " fill="#41413F" transform="translate(7,88)"/>
<path d="M0 0 C2.97 0.495 2.97 0.495 6 1 C6 1.99 6 2.98 6 4 C6.99 3.67 7.98 3.34 9 3 C9.33 2.01 9.66 1.02 10 0 C11.65 0.33 13.3 0.66 15 1 C15.33 2.32 15.66 3.64 16 5 C16.66 5 17.32 5 18 5 C18 8.3 18 11.6 18 15 C17.01 15 16.02 15 15 15 C15 15.99 15 16.98 15 18 C13.68 18 12.36 18 11 18 C11 18.66 11 19.32 11 20 C9.35 20.33 7.7 20.66 6 21 C6.66 20.67 7.32 20.34 8 20 C8.65772428 16.97065509 8.65772428 16.97065509 9 14 C10.98 13.34 12.96 12.68 15 12 C15 11.34 15 10.68 15 10 C13.02 10.66 11.04 11.32 9 12 C9 11.01 9 10.02 9 9 C10.32 8.67 11.64 8.34 13 8 C13 7.01 13 6.02 13 5 C11.35 5.33 9.7 5.66 8 6 C8 7.65 8 9.3 8 11 C6.02 11 4.04 11 2 11 C-1.07692308 5.70769231 -1.07692308 5.70769231 -0.6875 2.125 C-0.460625 1.42375 -0.23375 0.7225 0 0 Z " fill="#AFADAA" transform="translate(85,58)"/>
<path d="M0 0 C0.99 0.33 1.98 0.66 3 1 C2.34 1 1.68 1 1 1 C1 1.66 1 2.32 1 3 C2.98 3.66 4.96 4.32 7 5 C7 5.66 7 6.32 7 7 C7.66 7 8.32 7 9 7 C9.20625 7.556875 9.4125 8.11375 9.625 8.6875 C10.96846753 10.94696811 12.05157702 11.9998656 14.0625 13.625 C17 16 17 16 18 18 C18.04022391 20.3329866 18.04320247 22.66706666 18 25 C17.67 24.34 17.34 23.68 17 23 C13.7 23 10.4 23 7 23 C6.67 22.01 6.34 21.02 6 20 C5.34 19.67 4.68 19.34 4 19 C4 14.71 4 10.42 4 6 C3.34 6 2.68 6 2 6 C2 5.34 2 4.68 2 4 C0.35 3.67 -1.3 3.34 -3 3 C-3 3.66 -3 4.32 -3 5 C-3.99 5.33 -4.98 5.66 -6 6 C-6 5.34 -6 4.68 -6 4 C-5.34 4 -4.68 4 -4 4 C-4 3.34 -4 2.68 -4 2 C-2.68 2 -1.36 2 0 2 C0 1.34 0 0.68 0 0 Z " fill="#736F69" transform="translate(78,5)"/>
<path d="M0 0 C0.66 0 1.32 0 2 0 C2 0.66 2 1.32 2 2 C2.66 2 3.32 2 4 2 C4 2.66 4 3.32 4 4 C4.66 4 5.32 4 6 4 C6 4.66 6 5.32 6 6 C8.97 6.495 8.97 6.495 12 7 C12 7.66 12 8.32 12 9 C13.65 9 15.3 9 17 9 C17 9.66 17 10.32 17 11 C18.11375 11.144375 19.2275 11.28875 20.375 11.4375 C24 12 24 12 26 13 C26 13.99 26 14.98 26 16 C26.66 16 27.32 16 28 16 C28.33 17.32 28.66 18.64 29 20 C24.71 20 20.42 20 16 20 C16 18.68 16 17.36 16 16 C15.01 16 14.02 16 13 16 C13 15.01 13 14.02 13 13 C10.66785852 11.79371992 8.50357861 10.8345262 6 10 C6 9.34 6 8.68 6 8 C5.34 8 4.68 8 4 8 C4 7.34 4 6.68 4 6 C3.34 6 2.68 6 2 6 C2 5.34 2 4.68 2 4 C1.34 4 0.68 4 0 4 C0 2.68 0 1.36 0 0 Z " fill="#626261" transform="translate(52,66)"/>
<path d="M0 0 C2.64 0.33 5.28 0.66 8 1 C8 1.66 8 2.32 8 3 C8.66 3 9.32 3 10 3 C10 3.66 10 4.32 10 5 C9.34 5 8.68 5 8 5 C8 6.98 8 8.96 8 11 C8.66 11 9.32 11 10 11 C10 11.66 10 12.32 10 13 C10.66 13 11.32 13 12 13 C12 14.32 12 15.64 12 17 C12.66 17 13.32 17 14 17 C14 14.36 14 11.72 14 9 C14.66 9 15.32 9 16 9 C16 9.99 16 10.98 16 12 C16.66 12 17.32 12 18 12 C18 17.66666667 18 23.33333333 18 29 C18.66 29 19.32 29 20 29 C20.08075665 31.29109597 20.13907731 33.58299267 20.1875 35.875 C20.23970703 37.78925781 20.23970703 37.78925781 20.29296875 39.7421875 C20.14794922 41.35480469 20.14794922 41.35480469 20 43 C19.01 43.66 18.02 44.32 17 45 C16.93941406 43.96359375 16.87882812 42.9271875 16.81640625 41.859375 C16.73196629 40.48957127 16.64732003 39.11978025 16.5625 37.75 C16.52318359 37.06808594 16.48386719 36.38617188 16.44335938 35.68359375 C16.23333528 32.35551959 15.98065998 29.19744598 15 26 C14.34 26 13.68 26 13 26 C11.57741188 22.17679443 10.75957724 19.08718695 11 15 C10.34 15 9.68 15 9 15 C9 14.01 9 13.02 9 12 C8.34 12 7.68 12 7 12 C6.67 12.99 6.34 13.98 6 15 C6 11.7 6 8.4 6 5 C5.34 5 4.68 5 4 5 C3.896875 4.360625 3.79375 3.72125 3.6875 3.0625 C3.460625 2.381875 3.23375 1.70125 3 1 C2.01 0.67 1.02 0.34 0 0 Z " fill="#4E4E4D" transform="translate(97,58)"/>
<path d="M0 0 C0.33 1.32 0.66 2.64 1 4 C1.66 4 2.32 4 3 4 C2.875 7.25 2.875 7.25 2 11 C-0.87647967 13.54960698 -2.88736783 14.81887383 -6.6875 15.4375 C-9 15 -9 15 -10.8125 13.8125 C-12.36678206 11.44017475 -12.22537188 9.77958655 -12 7 C-11.34 7 -10.68 7 -10 7 C-9.67 5.02 -9.34 3.04 -9 1 C-5.8035914 -0.06546953 -3.34252724 -0.07427838 0 0 Z " fill="#BEBEBE" transform="translate(45,44)"/>
<path d="M0 0 C4.62 0 9.24 0 14 0 C14 0.33 14 0.66 14 1 C11.69 1 9.38 1 7 1 C7 1.99 7 2.98 7 4 C7.66 4 8.32 4 9 4 C9 4.66 9 5.32 9 6 C9.66 6 10.32 6 11 6 C11.33 6.66 11.66 7.32 12 8 C14.02463255 8.65213292 14.02463255 8.65213292 16 9 C16.33 10.32 16.66 11.64 17 13 C14.69 13 12.38 13 10 13 C10.33 14.65 10.66 16.3 11 18 C11.66 18 12.32 18 13 18 C13 18.66 13 19.32 13 20 C13.99 20 14.98 20 16 20 C16.33 21.32 16.66 22.64 17 24 C15.02 24 13.04 24 11 24 C11 22.68 11 21.36 11 20 C10.01 20 9.02 20 8 20 C8 19.01 8 18.02 8 17 C7.34 17 6.68 17 6 17 C6 15.68 6 14.36 6 13 C5.34 13 4.68 13 4 13 C4 12.01 4 11.02 4 10 C4.66 10 5.32 10 6 10 C6 10.66 6 11.32 6 12 C8.64 12 11.28 12 14 12 C14 11.34 14 10.68 14 10 C12.741875 9.855625 11.48375 9.71125 10.1875 9.5625 C3.76898734 8.82594937 3.76898734 8.82594937 1.3125 6.1875 C0 4 0 4 0 0 Z " fill="#666665" transform="translate(69,86)"/>
<path d="M0 0 C0.33 0.66 0.66 1.32 1 2 C1.66 2 2.32 2 3 2 C3.33 3.32 3.66 4.64 4 6 C4.66 6 5.32 6 6 6 C6 6.66 6 7.32 6 8 C8.64 8.33 11.28 8.66 14 9 C14 9.66 14 10.32 14 11 C14.66 11 15.32 11 16 11 C16 11.66 16 12.32 16 13 C13.69 12.67 11.38 12.34 9 12 C9 12.66 9 13.32 9 14 C11.97 14.495 11.97 14.495 15 15 C15.33 16.32 15.66 17.64 16 19 C15.34 19 14.68 19 14 19 C14 18.34 14 17.68 14 17 C12.9275 16.855625 11.855 16.71125 10.75 16.5625 C8.08337051 16.16250558 5.58600271 15.72408076 3 15 C3 14.34 3 13.68 3 13 C2.01 13 1.02 13 0 13 C0 12.34 0 11.68 0 11 C-0.66 11 -1.32 11 -2 11 C-2 8.69 -2 6.38 -2 4 C-2.66 4 -3.32 4 -4 4 C-4 3.34 -4 2.68 -4 2 C-2.68 2 -1.36 2 0 2 C0 1.34 0 0.68 0 0 Z " fill="#585756" transform="translate(63,48)"/>
<path d="M0 0 C1 3 1 3 -0.375 5.875 C-0.91125 6.90625 -1.4475 7.9375 -2 9 C-2.09410156 9.83144531 -2.18820313 10.66289063 -2.28515625 11.51953125 C-3 14 -3 14 -5.28515625 15.58203125 C-6.65994141 16.19111328 -6.65994141 16.19111328 -8.0625 16.8125 C-8.98160156 17.23144531 -9.90070313 17.65039062 -10.84765625 18.08203125 C-11.55792969 18.38496094 -12.26820312 18.68789062 -13 19 C-13.19477739 17.37585622 -13.38059458 15.75063577 -13.5625 14.125 C-13.66691406 13.22007813 -13.77132812 12.31515625 -13.87890625 11.3828125 C-14 9 -14 9 -13 7 C-10.4375 6.375 -10.4375 6.375 -8 6 C-8 5.01 -8 4.02 -8 3 C-5.36 2.67 -2.72 2.34 0 2 C0 1.34 0 0.68 0 0 Z " fill="#C1C1C1" transform="translate(103,80)"/>
<path d="M0 0 C2.97 0 5.94 0 9 0 C13.04654428 6.91284647 12.26901851 14.25824503 12 22 C11.01 21.67 10.02 21.34 9 21 C9 20.34 9 19.68 9 19 C8.01 19 7.02 19 6 19 C6 18.34 6 17.68 6 17 C5.34 17 4.68 17 4 17 C3.67 15.35 3.34 13.7 3 12 C4.98 11.67 6.96 11.34 9 11 C9 10.01 9 9.02 9 8 C7.35 7.67 5.7 7.34 4 7 C4 6.34 4 5.68 4 5 C3.34 5 2.68 5 2 5 C2 4.34 2 3.68 2 3 C1.34 3 0.68 3 0 3 C0 2.01 0 1.02 0 0 Z " fill="#B9B9B9" transform="translate(76,87)"/>
<path d="M0 0 C3.87006433 3.37172728 4.3287201 7.06956485 5 12 C5.1414291 15.02475791 5.09621987 17.96907415 5 21 C5.66 21 6.32 21 7 21 C7 22.32 7 23.64 7 25 C6.34 25 5.68 25 5 25 C4.566875 26.0828125 4.566875 26.0828125 4.125 27.1875 C3.08333333 29.79166667 2.04166667 32.39583333 1 35 C0.67 34.34 0.34 33.68 0 33 C-0.66 32.67 -1.32 32.34 -2 32 C-1.34 27.71 -0.68 23.42 0 19 C0.66 19 1.32 19 2 19 C2 18.34 2 17.68 2 17 C1.34 17 0.68 17 0 17 C0 15.68 0 14.36 0 13 C0.66 13 1.32 13 2 13 C2 10.03 2 7.06 2 4 C1.34 4 0.68 4 0 4 C0 2.68 0 1.36 0 0 Z " fill="#C3C2BF" transform="translate(96,5)"/>
<path d="M0 0 C0.66 0 1.32 0 2 0 C2.33 1.32 2.66 2.64 3 4 C4.98 3.67 6.96 3.34 9 3 C9 3.66 9 4.32 9 5 C9.66 5 10.32 5 11 5 C10.67 6.32 10.34 7.64 10 9 C10.66 9 11.32 9 12 9 C12 11.31 12 13.62 12 16 C12.66 16 13.32 16 14 16 C14 16.66 14 17.32 14 18 C14.99 18 15.98 18 17 18 C17 18.66 17 19.32 17 20 C18.0725 20.144375 19.145 20.28875 20.25 20.4375 C22.91662949 20.83749442 25.41399729 21.27591924 28 22 C28 22.66 28 23.32 28 24 C28.66 24 29.32 24 30 24 C30.33 23.34 30.66 22.68 31 22 C31 23.65 31 25.3 31 27 C29.35 26.67 27.7 26.34 26 26 C26 25.34 26 24.68 26 24 C24.7625 23.855625 23.525 23.71125 22.25 23.5625 C19.43495501 23.21311498 16.7298503 22.79620634 14 22 C14 21.34 14 20.68 14 20 C13.01 20 12.02 20 11 20 C9.57741188 16.17679443 8.75957724 13.08718695 9 9 C8.34 9 7.68 9 7 9 C7 7.68 7 6.36 7 5 C5.02 5 3.04 5 1 5 C0.67 3.35 0.34 1.7 0 0 Z " fill="#50504F" transform="translate(49,43)"/>
<path d="M0 0 C0.33 0 0.66 0 1 0 C1.33 3.3 1.66 6.6 2 10 C2.66 10 3.32 10 4 10 C4 11.98 4 13.96 4 16 C-2.93 16 -9.86 16 -17 16 C-17 15.67 -17 15.34 -17 15 C-15.02 15 -13.04 15 -11 15 C-11 14.34 -11 13.68 -11 13 C-10.34 13 -9.68 13 -9 13 C-9 12.34 -9 11.68 -9 11 C-7.68 10.67 -6.36 10.34 -5 10 C-5 9.34 -5 8.68 -5 8 C-4.01 8 -3.02 8 -2 8 C-2 7.34 -2 6.68 -2 6 C-1.34 6 -0.68 6 0 6 C0 4.02 0 2.04 0 0 Z " fill="#141312" transform="translate(124,112)"/>
<path d="M0 0 C1.32 0 2.64 0 4 0 C4 1.32 4 2.64 4 4 C4.66 4 5.32 4 6 4 C6.66 7.63 7.32 11.26 8 15 C8.99 15 9.98 15 11 15 C11 15.66 11 16.32 11 17 C12.051875 17.144375 13.10375 17.28875 14.1875 17.4375 C17.15460549 17.87526966 20.06794366 18.37804866 23 19 C23 19.66 23 20.32 23 21 C25.31 21.33 27.62 21.66 30 22 C30.33 23.65 30.66 25.3 31 27 C30.34 27 29.68 27 29 27 C29 26.34 29 25.68 29 25 C27.68 25 26.36 25 25 25 C25 24.34 25 23.68 25 23 C23.35 23 21.7 23 20 23 C20 22.34 20 21.68 20 21 C18.35 21 16.7 21 15 21 C15 20.34 15 19.68 15 19 C13.02 19 11.04 19 9 19 C9 18.34 9 17.68 9 17 C8.01 17 7.02 17 6 17 C6 15.68 6 14.36 6 13 C5.34 13 4.68 13 4 13 C4 10.36 4 7.72 4 5 C3.34 5 2.68 5 2 5 C2 4.01 2 3.02 2 2 C1.34 2 0.68 2 0 2 C0 1.34 0 0.68 0 0 Z " fill="#B4B4B3" transform="translate(52,48)"/>
<path d="M0 0 C0.66 0 1.32 0 2 0 C2 0.99 2 1.98 2 3 C2.66 3 3.32 3 4 3 C4.33 4.98 4.66 6.96 5 9 C4.01 9 3.02 9 2 9 C1.67 9.99 1.34 10.98 1 12 C1 11.01 1 10.02 1 9 C0.01 9 -0.98 9 -2 9 C-2 9.66 -2 10.32 -2 11 C-3.32 11 -4.64 11 -6 11 C-6 11.66 -6 12.32 -6 13 C-10.16138263 13.08159574 -13.9472484 12.98248524 -18 12 C-17.67 11.34 -17.34 10.68 -17 10 C-14.69 10 -12.38 10 -10 10 C-10 9.34 -10 8.68 -10 8 C-9.34 8 -8.68 8 -8 8 C-8 7.34 -8 6.68 -8 6 C-6.68 6 -5.36 6 -4 6 C-4 5.01 -4 4.02 -4 3 C-2.68 3 -1.36 3 0 3 C0 2.01 0 1.02 0 0 Z " fill="#3D3D3B" transform="translate(104,70)"/>
<path d="M0 0 C0.33 0.66 0.66 1.32 1 2 C1.66 2 2.32 2 3 2 C3 3.98 3 5.96 3 8 C1.68 8.33 0.36 8.66 -1 9 C-1 9.66 -1 10.32 -1 11 C-1.99 11 -2.98 11 -4 11 C-4 11.66 -4 12.32 -4 13 C-5.32 13.33 -6.64 13.66 -8 14 C-8 14.66 -8 15.32 -8 16 C-8.66 16 -9.32 16 -10 16 C-10 16.66 -10 17.32 -10 18 C-11.47831221 18.19412181 -12.95769316 18.38012131 -14.4375 18.5625 C-15.26121094 18.66691406 -16.08492188 18.77132812 -16.93359375 18.87890625 C-17.61550781 18.91886719 -18.29742187 18.95882812 -19 19 C-20 18 -20 18 -20.0625 15.4375 C-20.041875 14.633125 -20.02125 13.82875 -20 13 C-19.34 13 -18.68 13 -18 13 C-18 14.32 -18 15.64 -18 17 C-17.34 17 -16.68 17 -16 17 C-16 16.34 -16 15.68 -16 15 C-14.02 14.34 -12.04 13.68 -10 13 C-10 12.34 -10 11.68 -10 11 C-9.34 11 -8.68 11 -8 11 C-8 10.34 -8 9.68 -8 9 C-7.360625 8.896875 -6.72125 8.79375 -6.0625 8.6875 C-5.381875 8.460625 -4.70125 8.23375 -4 8 C-3.67 7.01 -3.34 6.02 -3 5 C-2.34 5 -1.68 5 -1 5 C-0.67 3.35 -0.34 1.7 0 0 Z " fill="#6B6B6B" transform="translate(123,109)"/>
<path d="M0 0 C1.65 0.33 3.3 0.66 5 1 C5 1.66 5 2.32 5 3 C5.66 3 6.32 3 7 3 C7.625 5.3125 7.625 5.3125 8 8 C7.01 9.485 7.01 9.485 6 11 C3.83125748 10.49396008 2.00032373 10.00016187 0 9 C0 8.34 0 7.68 0 7 C-1.65 7 -3.3 7 -5 7 C-5 7.66 -5 8.32 -5 9 C-5.66 9 -6.32 9 -7 9 C-7 8.01 -7 7.02 -7 6 C-6.34 6 -5.68 6 -5 6 C-5 5.34 -5 4.68 -5 4 C-3.35 3.34 -1.7 2.68 0 2 C0 1.34 0 0.68 0 0 Z " fill="#151514" transform="translate(75,8)"/>
<path d="M0 0 C0.99 0.495 0.99 0.495 2 1 C1.67 2.98 1.34 4.96 1 7 C3.97 7.495 3.97 7.495 7 8 C7.33 9.32 7.66 10.64 8 12 C9.98 12 11.96 12 14 12 C14 11.34 14 10.68 14 10 C14.66 10 15.32 10 16 10 C15.67 11.65 15.34 13.3 15 15 C14.34 15 13.68 15 13 15 C13 15.66 13 16.32 13 17 C10.69 17.33 8.38 17.66 6 18 C6 17.01 6 16.02 6 15 C5.34 15 4.68 15 4 15 C3.34 12.69 2.68 10.38 2 8 C1.34 8 0.68 8 0 8 C0 5.36 0 2.72 0 0 Z " fill="#5A5A59" transform="translate(18,78)"/>
<path d="M0 0 C0.66 0 1.32 0 2 0 C2.33 1.32 2.66 2.64 3 4 C3.66 4 4.32 4 5 4 C7.4223898 7.75854925 7.2671569 11.17462374 7.25 15.5625 C7.25773437 16.23474609 7.26546875 16.90699219 7.2734375 17.59960938 C7.25880148 21.28422836 7.09589902 22.85615148 5 26 C4.01751476 21.9472484 3.91840426 18.16138263 4 14 C3.34 14 2.68 14 2 14 C-0.29612756 4.58997722 -0.29612756 4.58997722 0 0 Z " fill="#C1C1C1" transform="translate(107,80)"/>
<path d="M0 0 C0.33 0 0.66 0 1 0 C1 4.29 1 8.58 1 13 C1.66 13 2.32 13 3 13 C3 13.99 3 14.98 3 16 C3.66 16 4.32 16 5 16 C5 16.66 5 17.32 5 18 C5.66 18 6.32 18 7 18 C7.6875 20.8125 7.6875 20.8125 8 24 C6.5625 25.875 6.5625 25.875 5 27 C4.34 26.34 3.68 25.68 3 25 C3 24.01 3 23.02 3 22 C2.34 22 1.68 22 1 22 C0.67 20.68 0.34 19.36 0 18 C-0.66 18 -1.32 18 -2 18 C-2 17.01 -2 16.02 -2 15 C-1.34 15 -0.68 15 0 15 C0 10.05 0 5.1 0 0 Z " fill="#373736" transform="translate(115,88)"/>
<path d="M0 0 C0.99 0.33 1.98 0.66 3 1 C2.67 3.64 2.34 6.28 2 9 C2.66 9 3.32 9 4 9 C4.33 10.32 4.66 11.64 5 13 C5.66 13 6.32 13 7 13 C7 15.64 7 18.28 7 21 C6.67 20.34 6.34 19.68 6 19 C5.34 19 4.68 19 4 19 C3.67 18.01 3.34 17.02 3 16 C2.34 15.67 1.68 15.34 1 15 C1 14.01 1 13.02 1 12 C0.34 12 -0.32 12 -1 12 C-2.42857143 3.42857143 -2.42857143 3.42857143 0 0 Z " fill="#141413" transform="translate(81,58)"/>
<path d="M0 0 C2.97 0.33 5.94 0.66 9 1 C9.33 2.65 9.66 4.3 10 6 C10.66 6 11.32 6 12 6 C12 6.66 12 7.32 12 8 C9.03 8 6.06 8 3 8 C2.67 7.01 2.34 6.02 2 5 C1.34 4.67 0.68 4.34 0 4 C0 2.68 0 1.36 0 0 Z " fill="#EBCC9D" transform="translate(82,20)"/>
<path d="M0 0 C0.66 0 1.32 0 2 0 C2 0.66 2 1.32 2 2 C2.66 2 3.32 2 4 2 C4 2.66 4 3.32 4 4 C4.66 4 5.32 4 6 4 C6 4.66 6 5.32 6 6 C6.66 6 7.32 6 8 6 C8 6.99 8 7.98 8 9 C8.66 9 9.32 9 10 9 C10 9.66 10 10.32 10 11 C10.66 11 11.32 11 12 11 C12 12.32 12 13.64 12 15 C11.01 15 10.02 15 9 15 C8.67 13.68 8.34 12.36 8 11 C7.34 11 6.68 11 6 11 C6 10.34 6 9.68 6 9 C4.68 9 3.36 9 2 9 C2 8.01 2 7.02 2 6 C1.34 6 0.68 6 0 6 C0 4.02 0 2.04 0 0 Z " fill="#A8A8A7" transform="translate(14,95)"/>
<path d="M0 0 C1 3 1 3 -0.375 5.875 C-0.91125 6.90625 -1.4475 7.9375 -2 9 C-2.69907414 11.73572585 -2.69907414 11.73572585 -3 14 C-3.33 14 -3.66 14 -4 14 C-4 12.02 -4 10.04 -4 8 C-8.455 8.495 -8.455 8.495 -13 9 C-13 8.34 -13 7.68 -13 7 C-11.35 6.67 -9.7 6.34 -8 6 C-8 5.01 -8 4.02 -8 3 C-5.36 2.67 -2.72 2.34 0 2 C0 1.34 0 0.68 0 0 Z " fill="#808080" transform="translate(103,80)"/>
<path d="M0 0 C0.33 0 0.66 0 1 0 C1.33 3.3 1.66 6.6 2 10 C2.66 10 3.32 10 4 10 C4 11.98 4 13.96 4 16 C1.625 15.8125 1.625 15.8125 -1 15 C-2.1875 12.5625 -2.1875 12.5625 -3 10 C-3.66 9.34 -4.32 8.68 -5 8 C-4.01 8 -3.02 8 -2 8 C-2 7.34 -2 6.68 -2 6 C-1.34 6 -0.68 6 0 6 C0 4.02 0 2.04 0 0 Z " fill="#333231" transform="translate(124,112)"/>
<path d="M0 0 C0.33 0 0.66 0 1 0 C1 6.6 1 13.2 1 20 C1.66 20 2.32 20 3 20 C3 21.98 3 23.96 3 26 C3.66 26 4.32 26 5 26 C5 27.32 5 28.64 5 30 C3.35 30 1.7 30 0 30 C0 20.1 0 10.2 0 0 Z " fill="#CCCCCB" transform="translate(0,98)"/>
<path d="M0 0 C2.475 0.99 2.475 0.99 5 2 C5 2.99 5 3.98 5 5 C6.32 5.66 7.64 6.32 9 7 C8.34 7 7.68 7 7 7 C7 8.98 7 10.96 7 13 C6.34 11.68 5.68 10.36 5 9 C4.01 9 3.02 9 2 9 C2 8.01 2 7.02 2 6 C0.68 5.67 -0.64 5.34 -2 5 C-2 4.34 -2 3.68 -2 3 C-2.66 2.67 -3.32 2.34 -4 2 C-2.68 2 -1.36 2 0 2 C0 1.34 0 0.68 0 0 Z " fill="#5C5C5B" transform="translate(7,88)"/>
<path d="M0 0 C0.66 0 1.32 0 2 0 C2 1.65 2 3.3 2 5 C2.66 5 3.32 5 4 5 C4 5.66 4 6.32 4 7 C4.66 7 5.32 7 6 7 C6 7.66 6 8.32 6 9 C7.258125 9.144375 8.51625 9.28875 9.8125 9.4375 C12.42667123 9.73748686 14.47439892 10.15813297 17 11 C17.6875 13.0625 17.6875 13.0625 18 15 C17.34 15 16.68 15 16 15 C16 14.34 16 13.68 16 13 C14.9275 12.855625 13.855 12.71125 12.75 12.5625 C10.08337051 12.16250558 7.58600271 11.72408076 5 11 C5 10.34 5 9.68 5 9 C4.01 9 3.02 9 2 9 C2 8.34 2 7.68 2 7 C1.34 7 0.68 7 0 7 C0 4.69 0 2.38 0 0 Z " fill="#B1B1B1" transform="translate(61,52)"/>
<path d="M0 0 C1.32 0 2.64 0 4 0 C4 0.66 4 1.32 4 2 C4.66 2 5.32 2 6 2 C6.33 5.96 6.66 9.92 7 14 C6.67 13.34 6.34 12.68 6 12 C5.34 12 4.68 12 4 12 C4 10.68 4 9.36 4 8 C3.34 8 2.68 8 2 8 C2 7.34 2 6.68 2 6 C1.34 6 0.68 6 0 6 C0 4.02 0 2.04 0 0 Z " fill="#ADADAC" transform="translate(105,63)"/>
<path d="M0 0 C2.64 0.33 5.28 0.66 8 1 C8 1.66 8 2.32 8 3 C8.66 3 9.32 3 10 3 C10 3.66 10 4.32 10 5 C9.34 5 8.68 5 8 5 C8 6.98 8 8.96 8 11 C8.66 11 9.32 11 10 11 C10 11.66 10 12.32 10 13 C10.66 13 11.32 13 12 13 C11.67 14.32 11.34 15.64 11 17 C11 16.34 11 15.68 11 15 C10.34 15 9.68 15 9 15 C9 14.01 9 13.02 9 12 C8.34 12 7.68 12 7 12 C6.67 12.99 6.34 13.98 6 15 C6 11.7 6 8.4 6 5 C5.34 5 4.68 5 4 5 C3.896875 4.360625 3.79375 3.72125 3.6875 3.0625 C3.460625 2.381875 3.23375 1.70125 3 1 C2.01 0.67 1.02 0.34 0 0 Z " fill="#535251" transform="translate(97,58)"/>
<path d="M0 0 C2.97 0.495 2.97 0.495 6 1 C6 3.64 6 6.28 6 9 C4.35 9 2.7 9 1 9 C-0.61949011 6.42786866 -1.04408751 5.32330841 -0.625 2.25 C-0.41875 1.5075 -0.2125 0.765 0 0 Z " fill="#6ABBCD" transform="translate(85,58)"/>
<path d="M0 0 C0.66 0.33 1.32 0.66 2 1 C2.625 3.5625 2.625 3.5625 3 6 C3.66 6 4.32 6 5 6 C5.33 6.66 5.66 7.32 6 8 C6.99 8 7.98 8 9 8 C9 8.66 9 9.32 9 10 C8.01 10 7.02 10 6 10 C6 11.32 6 12.64 6 14 C5.34 14 4.68 14 4 14 C3.87625 13.195625 3.7525 12.39125 3.625 11.5625 C3.41875 10.716875 3.2125 9.87125 3 9 C2.34 8.67 1.68 8.34 1 8 C1 7.34 1 6.68 1 6 C0.34 6 -0.32 6 -1 6 C-1 5.34 -1 4.68 -1 4 C-1.66 4 -2.32 4 -3 4 C-3.33 4.99 -3.66 5.98 -4 7 C-4.99 6.34 -5.98 5.68 -7 5 C-6.34 5 -5.68 5 -5 5 C-5 4.01 -5 3.02 -5 2 C-3.35 2.33 -1.7 2.66 0 3 C0 2.01 0 1.02 0 0 Z " fill="#272625" transform="translate(19,87)"/>
<path d="M0 0 C1.32 0.33 2.64 0.66 4 1 C3.34 1 2.68 1 2 1 C2 1.66 2 2.32 2 3 C1.01 3 0.02 3 -1 3 C-1 4.32 -1 5.64 -1 7 C-1.66 7 -2.32 7 -3 7 C-3 9.31 -3 11.62 -3 14 C-3.66 14 -4.32 14 -5 14 C-5 16.31 -5 18.62 -5 21 C-5.33 21 -5.66 21 -6 21 C-6 18.36 -6 15.72 -6 13 C-5.34 13 -4.68 13 -4 13 C-4.33 11.35 -4.66 9.7 -5 8 C-5.99 9.32 -6.98 10.64 -8 12 C-8 10.02 -8 8.04 -8 6 C-7.01 6 -6.02 6 -5 6 C-5 5.34 -5 4.68 -5 4 C-4.34 4 -3.68 4 -3 4 C-3 3.34 -3 2.68 -3 2 C-2.01 2 -1.02 2 0 2 C0 1.34 0 0.68 0 0 Z " fill="#20201F" transform="translate(26,44)"/>
<path d="M0 0 C1.65 0 3.3 0 5 0 C5 0.66 5 1.32 5 2 C5.99 2.33 6.98 2.66 8 3 C8 7.95 8 12.9 8 18 C7.67 17.34 7.34 16.68 7 16 C6.34 16 5.68 16 5 16 C5.05800781 15.32453125 5.11601563 14.6490625 5.17578125 13.953125 C5.31374864 11.22531264 5.36212819 8.7095709 5 6 C2.66169042 3.4595774 2.66169042 3.4595774 0 2 C0 1.34 0 0.68 0 0 Z " fill="#B5B5B4" transform="translate(70,15)"/>
<path d="M0 0 C0 1.32 0 2.64 0 4 C-0.66 4 -1.32 4 -2 4 C-2 5.65 -2 7.3 -2 9 C-3.65 9.66 -5.3 10.32 -7 11 C-7.6875 9.3125 -7.6875 9.3125 -8 7 C-6.27679481 3.3812691 -4.46168088 0 0 0 Z " fill="#BABABA" transform="translate(98,97)"/>
<path d="M0 0 C0.66 0 1.32 0 2 0 C2 0.66 2 1.32 2 2 C3.32 2.33 4.64 2.66 6 3 C6 3.99 6 4.98 6 6 C6.66 6 7.32 6 8 6 C8.08075665 8.29109597 8.13907731 10.58299267 8.1875 12.875 C8.22230469 14.15117188 8.25710937 15.42734375 8.29296875 16.7421875 C8.19628906 17.81726563 8.09960938 18.89234375 8 20 C7.01 20.66 6.02 21.32 5 22 C4.93941406 20.96359375 4.87882812 19.9271875 4.81640625 18.859375 C4.73196629 17.48957127 4.64732003 16.11978025 4.5625 14.75 C4.52318359 14.06808594 4.48386719 13.38617188 4.44335938 12.68359375 C4.23333528 9.35551959 3.98065998 6.19744598 3 3 C2.34 3 1.68 3 1 3 C0.67 2.01 0.34 1.02 0 0 Z " fill="#80807F" transform="translate(109,81)"/>
<path d="M0 0 C2.31 0 4.62 0 7 0 C8.85776765 3.13498292 9.20140476 5.37471432 9 9 C8.01 8.67 7.02 8.34 6 8 C6 7.34 6 6.68 6 6 C5.01 6 4.02 6 3 6 C3 5.34 3 4.68 3 4 C2.34 4 1.68 4 1 4 C0.67 2.68 0.34 1.36 0 0 Z " fill="#BFBFBF" transform="translate(79,100)"/>
<path d="M0 0 C0 0.66 0 1.32 0 2 C0.66 2 1.32 2 2 2 C2.33 1.34 2.66 0.68 3 0 C3 1.65 3 3.3 3 5 C1.35 4.67 -0.3 4.34 -2 4 C-2 3.34 -2 2.68 -2 2 C-3.85625 1.814375 -3.85625 1.814375 -5.75 1.625 C-8.8762197 1.24253695 -11.28879237 0.69450477 -14 -1 C-9.28961976 -2.57012675 -4.70519095 -1.31745347 0 0 Z " fill="#525251" transform="translate(77,65)"/>
<path d="M0 0 C3.86979806 3.33968874 4.27722598 7.11504456 5 12 C5.125 15.5625 5.125 15.5625 5 18 C3.35 17.67 1.7 17.34 0 17 C0 15.68 0 14.36 0 13 C0.66 13 1.32 13 2 13 C2 10.03 2 7.06 2 4 C1.34 4 0.68 4 0 4 C0 2.68 0 1.36 0 0 Z " fill="#B0C8CA" transform="translate(96,5)"/>
<path d="M0 0 C1.32 0 2.64 0 4 0 C4 0.66 4 1.32 4 2 C4.66 2 5.32 2 6 2 C6.33 1.34 6.66 0.68 7 0 C7.33 1.32 7.66 2.64 8 4 C8.66 4 9.32 4 10 4 C10 4.66 10 5.32 10 6 C10.99 6 11.98 6 13 6 C13 5.34 13 4.68 13 4 C13.66 4 14.32 4 15 4 C15.33 3.34 15.66 2.68 16 2 C16.33 3.65 16.66 5.3 17 7 C10.375 8.125 10.375 8.125 7 7 C4.8125 5.0625 4.8125 5.0625 3 3 C3 2.34 3 1.68 3 1 C2.01 0.67 1.02 0.34 0 0 Z " fill="#676766" transform="translate(77,73)"/>
<path d="M0 0 C0.99 0.495 0.99 0.495 2 1 C2 1.66 2 2.32 2 3 C2.66 3 3.32 3 4 3 C4 3.66 4 4.32 4 5 C6.64 5.33 9.28 5.66 12 6 C12 6.66 12 7.32 12 8 C12.66 8 13.32 8 14 8 C14 8.66 14 9.32 14 10 C12.68 10 11.36 10 10 10 C10 9.34 10 8.68 10 8 C8.72125 7.9175 7.4425 7.835 6.125 7.75 C2.21294118 7.26617647 2.21294118 7.26617647 0.5 5.125 C0 3 0 3 0 0 Z " fill="#AAAAAA" transform="translate(65,51)"/>
<path d="M0 0 C5.75 0.75 5.75 0.75 8 3 C6.25 5.5 6.25 5.5 4 8 C2.68 8 1.36 8 0 8 C0 5.36 0 2.72 0 0 Z " fill="#8E8E8E" transform="translate(88,38)"/>
<path d="M0 0 C0.33 0.66 0.66 1.32 1 2 C1.66 2 2.32 2 3 2 C3 3.98 3 5.96 3 8 C1.68 8.33 0.36 8.66 -1 9 C-1 9.66 -1 10.32 -1 11 C-1.99 11 -2.98 11 -4 11 C-4 9.35 -4 7.7 -4 6 C-3.01 5.67 -2.02 5.34 -1 5 C-0.67 3.35 -0.34 1.7 0 0 Z " fill="#AAAAAA" transform="translate(123,109)"/>
<path d="M0 0 C0.66 0 1.32 0 2 0 C2.33 1.32 2.66 2.64 3 4 C2.34 4 1.68 4 1 4 C1 4.66 1 5.32 1 6 C0.01 6 -0.98 6 -2 6 C-2 7.65 -2 9.3 -2 11 C-3.98 11 -5.96 11 -8 11 C-8 10.34 -8 9.68 -8 9 C-6.68 9 -5.36 9 -4 9 C-4 7.35 -4 5.7 -4 4 C-3.01 3.67 -2.02 3.34 -1 3 C-0.67 2.01 -0.34 1.02 0 0 Z " fill="#B1B3B2" transform="translate(95,58)"/>
<path d="M0 0 C2.31 0 4.62 0 7 0 C7 0.99 7 1.98 7 3 C8.32 3.33 9.64 3.66 11 4 C10.67 4.99 10.34 5.98 10 7 C8.68 7 7.36 7 6 7 C6 6.34 6 5.68 6 5 C5.34 5 4.68 5 4 5 C4 4.34 4 3.68 4 3 C2.68 3 1.36 3 0 3 C0 2.01 0 1.02 0 0 Z " fill="#323130" transform="translate(54,43)"/>
<path d="M0 0 C0.33 1.32 0.66 2.64 1 4 C1.66 4 2.32 4 3 4 C3 9.61 3 15.22 3 21 C2.67 21 2.34 21 2 21 C1.67 17.04 1.34 13.08 1 9 C0.34 9 -0.32 9 -1 9 C-1 8.34 -1 7.68 -1 7 C-1.66 7 -2.32 7 -3 7 C-3 6.01 -3 5.02 -3 4 C-2.01 4 -1.02 4 0 4 C0 2.68 0 1.36 0 0 Z " fill="#5D5C5B" transform="translate(25,97)"/>
<path d="M0 0 C0.99 0.33 1.98 0.66 3 1 C3 1.99 3 2.98 3 4 C3.66 4 4.32 4 5 4 C5 5.32 5 6.64 5 8 C4.34 8 3.68 8 3 8 C3 9.32 3 10.64 3 12 C0.36 12.33 -2.28 12.66 -5 13 C-3.824375 12.2265625 -3.824375 12.2265625 -2.625 11.4375 C0.55594248 8.4837677 1.11493693 6.18393452 2 2 C1.34 2 0.68 2 0 2 C0 1.34 0 0.68 0 0 Z " fill="#5E5E5D" transform="translate(46,46)"/>
<path d="M0 0 C0 0.66 0 1.32 0 2 C-1.32 2 -2.64 2 -4 2 C-4 3.32 -4 4.64 -4 6 C-3.01 6.33 -2.02 6.66 -1 7 C-3.64 7 -6.28 7 -9 7 C-9.33 6.01 -9.66 5.02 -10 4 C-9.34 4 -8.68 4 -8 4 C-8 3.01 -8 2.02 -8 1 C-2.25 0 -2.25 0 0 0 Z " fill="#474746" transform="translate(91,46)"/>
<path d="M0 0 C0.99 0 1.98 0 3 0 C3.33 0.99 3.66 1.98 4 3 C4.495 3.45375 4.99 3.9075 5.5 4.375 C7.43309736 6.46918881 7.62452796 8.22150692 8 11 C7.34 11 6.68 11 6 11 C6 10.01 6 9.02 6 8 C5.34 8 4.68 8 4 8 C4 7.34 4 6.68 4 6 C2.02 5.34 0.04 4.68 -2 4 C-2 3.34 -2 2.68 -2 2 C-1.34 2 -0.68 2 0 2 C0 1.34 0 0.68 0 0 Z " fill="#2A2A29" transform="translate(81,4)"/>
<path d="M0 0 C0.33 0.99 0.66 1.98 1 3 C1.66 3 2.32 3 3 3 C3.33 4.32 3.66 5.64 4 7 C0.37 7 -3.26 7 -7 7 C-7 6.01 -7 5.02 -7 4 C-4.69 4 -2.38 4 0 4 C0 2.68 0 1.36 0 0 Z " fill="#434342" transform="translate(77,79)"/>
<path d="M0 0 C0.66 0 1.32 0 2 0 C2 0.66 2 1.32 2 2 C2.66 2 3.32 2 4 2 C4 2.66 4 3.32 4 4 C4.66 4 5.32 4 6 4 C6 4.66 6 5.32 6 6 C8.97 6.495 8.97 6.495 12 7 C10 8 8 9 6 10 C6 9.34 6 8.68 6 8 C5.34 8 4.68 8 4 8 C4 7.34 4 6.68 4 6 C3.34 6 2.68 6 2 6 C2 5.34 2 4.68 2 4 C1.34 4 0.68 4 0 4 C0 2.68 0 1.36 0 0 Z " fill="#525251" transform="translate(52,66)"/>
<path d="M0 0 C0.99 0.33 1.98 0.66 3 1 C2.34 1 1.68 1 1 1 C1 1.66 1 2.32 1 3 C2.98 3.66 4.96 4.32 7 5 C6.67 6.98 6.34 8.96 6 11 C4 8 4 8 4 6 C3.34 6 2.68 6 2 6 C2 5.34 2 4.68 2 4 C0.35 3.67 -1.3 3.34 -3 3 C-3 3.66 -3 4.32 -3 5 C-3.99 5.33 -4.98 5.66 -6 6 C-6 5.34 -6 4.68 -6 4 C-5.34 4 -4.68 4 -4 4 C-4 3.34 -4 2.68 -4 2 C-2.68 2 -1.36 2 0 2 C0 1.34 0 0.68 0 0 Z " fill="#646463" transform="translate(78,5)"/>
<path d="M0 0 C0.33 0 0.66 0 1 0 C1 1.65 1 3.3 1 5 C0.34 5 -0.32 5 -1 5 C-0.95875 6.2375 -0.9175 7.475 -0.875 8.75 C-0.86341709 12.01637962 -1.1431298 14.2146947 -3 17 C-3 15.02 -3 13.04 -3 11 C-3.66 11 -4.32 11 -5 11 C-4.67 10.01 -4.34 9.02 -4 8 C-3.34 8 -2.68 8 -2 8 C-1.855625 6.865625 -1.71125 5.73125 -1.5625 4.5625 C-1 1 -1 1 0 0 Z " fill="#3C3C3B" transform="translate(102,86)"/>
<path d="M0 0 C0.66 0 1.32 0 2 0 C2.309375 0.8353125 2.309375 0.8353125 2.625 1.6875 C3.98938378 4.28278158 3.98938378 4.28278158 7.0625 6.5 C10 9 10 9 10.875 11.3125 C10.936875 12.1478125 10.936875 12.1478125 11 13 C10.278125 12.236875 9.55625 11.47375 8.8125 10.6875 C6.19172205 7.94977881 6.19172205 7.94977881 3.25 6.5 C1 5 1 5 0.1875 2.3125 C0.0946875 1.1678125 0.0946875 1.1678125 0 0 Z " fill="#949493" transform="translate(85,12)"/>
<path d="M0 0 C0.99 0 1.98 0 3 0 C2.67 1.65 2.34 3.3 2 5 C2.66 5.33 3.32 5.66 4 6 C3.67 6.99 3.34 7.98 3 9 C-0.0625 10.1875 -0.0625 10.1875 -3 11 C-3 10.01 -3 9.02 -3 8 C-1.68 7.67 -0.36 7.34 1 7 C1 6.01 1 5.02 1 4 C0.34 3.67 -0.32 3.34 -1 3 C-0.34 3 0.32 3 1 3 C0.67 2.01 0.34 1.02 0 0 Z " fill="#B7A58A" transform="translate(97,59)"/>
<path d="M0 0 C1.73662334 3.22515763 2.8905928 6.51329166 4 10 C5.32 10 6.64 10 8 10 C8 10.66 8 11.32 8 12 C6.35 12 4.7 12 3 12 C2.67 10.68 2.34 9.36 2 8 C1.34 8 0.68 8 0 8 C-0.98120464 4.94736336 -0.98120464 3.05263664 0 0 Z " fill="#626465" transform="translate(83,59)"/>
<path d="M0 0 C1.32 0.33 2.64 0.66 4 1 C4 3.31 4 5.62 4 8 C2.68 8 1.36 8 0 8 C0 5.36 0 2.72 0 0 Z " fill="#333331" transform="translate(70,20)"/>
<path d="M0 0 C0.33 0 0.66 0 1 0 C2.32594359 5.96674616 2.0884587 11.92583615 2 18 C1.67 18 1.34 18 1 18 C0.67 15.03 0.34 12.06 0 9 C-0.66 9 -1.32 9 -2 9 C-2 7.35 -2 5.7 -2 4 C-1.34 4 -0.68 4 0 4 C0 2.68 0 1.36 0 0 Z " fill="#686867" transform="translate(98,97)"/>
<path d="M0 0 C0 3 0 3 -2 6 C-3.66072849 6.68132451 -5.327767 7.34742127 -7 8 C-8.77277259 9.52007842 -8.77277259 9.52007842 -10 11 C-9.75 9.125 -9.75 9.125 -9 7 C-6.9375 5.75 -6.9375 5.75 -5 5 C-5 4.34 -5 3.68 -5 3 C-2.5 1.375 -2.5 1.375 0 0 Z " fill="#555554" transform="translate(30,67)"/>
<path d="M0 0 C0.66 0 1.32 0 2 0 C2 0.66 2 1.32 2 2 C2.66 2 3.32 2 4 2 C4.33 3.98 4.66 5.96 5 8 C4.01 8 3.02 8 2 8 C2 7.34 2 6.68 2 6 C1.34 6 0.68 6 0 6 C0 4.02 0 2.04 0 0 Z " fill="#C0C0C0" transform="translate(14,95)"/>
<path d="M0 0 C7.625 0.875 7.625 0.875 11 2 C11.6875 4.0625 11.6875 4.0625 12 6 C11.34 6 10.68 6 10 6 C10 5.34 10 4.68 10 4 C7.69 3.67 5.38 3.34 3 3 C3 2.34 3 1.68 3 1 C2.01 0.67 1.02 0.34 0 0 Z " fill="#B7B7B7" transform="translate(67,61)"/>
<path d="M0 0 C0.33 0.99 0.66 1.98 1 3 C1.66 3 2.32 3 3 3 C3.33 4.98 3.66 6.96 4 9 C3.01 9 2.02 9 1 9 C0.67 9.99 0.34 10.98 0 12 C0 8.04 0 4.08 0 0 Z " fill="#151413" transform="translate(105,70)"/>
<path d="M0 0 C0.33 0.66 0.66 1.32 1 2 C2.97888961 2.72693904 4.97954558 3.39816251 7 4 C7 6.31 7 8.62 7 11 C6.67 10.01 6.34 9.02 6 8 C5.34 8 4.68 8 4 8 C4 7.01 4 6.02 4 5 C3.34 5 2.68 5 2 5 C2 4.34 2 3.68 2 3 C1.34 3 0.68 3 0 3 C0 2.01 0 1.02 0 0 Z " fill="#696968" transform="translate(42,95)"/>
<path d="M0 0 C0.99 0 1.98 0 3 0 C4.60725635 3.21451269 4.05748185 6.43612536 4 10 C3.34 10 2.68 10 2 10 C1.34 6.7 0.68 3.4 0 0 Z " fill="#828382" transform="translate(86,89)"/>
<path d="M0 0 C1.53202706 0.25195908 3.05257128 0.57596777 4.5625 0.9375 C5.38878906 1.13214844 6.21507813 1.32679687 7.06640625 1.52734375 C8.02353516 1.76130859 8.02353516 1.76130859 9 2 C9 2.66 9 3.32 9 4 C6.36 4 3.72 4 1 4 C1 3.34 1 2.68 1 2 C0.34 1.67 -0.32 1.34 -1 1 C-0.67 0.67 -0.34 0.34 0 0 Z " fill="#2F2E2D" transform="translate(74,94)"/>
<path d="M0 0 C1 3 1 3 0 6 C-2.31 5.67 -4.62 5.34 -7 5 C-6.34 4.67 -5.68 4.34 -5 4 C-5 3.34 -5 2.68 -5 2 C-3.35 2 -1.7 2 0 2 C0 1.34 0 0.68 0 0 Z " fill="#BFBFBE" transform="translate(103,80)"/>
<path d="M0 0 C0.33 0.66 0.66 1.32 1 2 C1.66 2.33 2.32 2.66 3 3 C2.67 4.65 2.34 6.3 2 8 C1.34 8 0.68 8 0 8 C0 6.68 0 5.36 0 4 C-1.32 4 -2.64 4 -4 4 C-4 3.34 -4 2.68 -4 2 C-2.68 2 -1.36 2 0 2 C0 1.34 0 0.68 0 0 Z " fill="#616160" transform="translate(63,48)"/>
<path d="M0 0 C0.66 0 1.32 0 2 0 C2.33 1.32 2.66 2.64 3 4 C4.98 3.67 6.96 3.34 9 3 C9 4.32 9 5.64 9 7 C8.34 7 7.68 7 7 7 C7 6.34 7 5.68 7 5 C5.02 5 3.04 5 1 5 C0.67 3.35 0.34 1.7 0 0 Z " fill="#444443" transform="translate(49,43)"/>
<path d="M0 0 C0.99 0 1.98 0 3 0 C3 1.32 3 2.64 3 4 C2.34 4 1.68 4 1 4 C1 4.66 1 5.32 1 6 C0.01 6 -0.98 6 -2 6 C-2 4.68 -2 3.36 -2 2 C-1.34 2 -0.68 2 0 2 C0 1.34 0 0.68 0 0 Z " fill="#F2D19F" transform="translate(100,26)"/>
<path d="M0 0 C1.32 0 2.64 0 4 0 C4 0.66 4 1.32 4 2 C4.66 2 5.32 2 6 2 C6.33 1.34 6.66 0.68 7 0 C7.66 1.98 8.32 3.96 9 6 C7 5 5 4 3 3 C3 2.34 3 1.68 3 1 C2.01 0.67 1.02 0.34 0 0 Z " fill="#80807F" transform="translate(77,73)"/>
<path d="M0 0 C0 0.99 0 1.98 0 3 C-1.32 3.33 -2.64 3.66 -4 4 C-4 4.99 -4 5.98 -4 7 C-4.99 6.67 -5.98 6.34 -7 6 C-6.34 6 -5.68 6 -5 6 C-5 4.35 -5 2.7 -5 1 C-2 0 -2 0 0 0 Z " fill="#4F4E4B" transform="translate(98,63)"/>
<path d="M0 0 C1.32 0 2.64 0 4 0 C4 0.66 4 1.32 4 2 C4.99 2 5.98 2 7 2 C7 2.66 7 3.32 7 4 C5.35 4 3.7 4 2 4 C2 3.34 2 2.68 2 2 C1.34 2 0.68 2 0 2 C0 1.34 0 0.68 0 0 Z " fill="#2E2E2D" transform="translate(90,54)"/>
<path d="M0 0 C0.99 0 1.98 0 3 0 C3.33 1.98 3.66 3.96 4 6 C2.35 5.67 0.7 5.34 -1 5 C-0.67 3.35 -0.34 1.7 0 0 Z " fill="#7E7E7D" transform="translate(84,40)"/>
<path d="M0 0 C2.97 0.33 5.94 0.66 9 1 C9 1.33 9 1.66 9 2 C6.69 2 4.38 2 2 2 C2 2.66 2 3.32 2 4 C1.34 4 0.68 4 0 4 C0 2.68 0 1.36 0 0 Z " fill="#C9A46D" transform="translate(82,20)"/>
<path d="M0 0 C1.65 0 3.3 0 5 0 C5 0.66 5 1.32 5 2 C5.99 2.33 6.98 2.66 8 3 C5.39417629 3.93065133 4.35801776 4.14917407 1.75 3.0625 C1.1725 2.711875 0.595 2.36125 0 2 C0 1.34 0 0.68 0 0 Z " fill="#9C9C9C" transform="translate(70,15)"/>
<path d="M0 0 C0.33 0 0.66 0 1 0 C1.042721 1.66611905 1.04063832 3.33382885 1 5 C0 6 0 6 -3.0625 6.0625 C-4.5165625 6.0315625 -4.5165625 6.0315625 -6 6 C-2.25 3 -2.25 3 0 3 C0 2.01 0 1.02 0 0 Z " fill="#5A5957" transform="translate(100,65)"/>
<path d="M0 0 C1.65 0.33 3.3 0.66 5 1 C4.01 2.485 4.01 2.485 3 4 C1.68 4 0.36 4 -1 4 C-0.67 2.68 -0.34 1.36 0 0 Z " fill="#BDBDBD" transform="translate(89,42)"/>
</svg>
