<?xml version="1.0" encoding="UTF-8"?>
<svg version="1.1" xmlns="http://www.w3.org/2000/svg" width="128" height="128">
<path d="M0 0 C4.88474956 3.3921872 6.55295333 8.58830087 7.59375 14.203125 C7.93932483 16.46968935 8.26589392 18.73926078 8.5703125 21.01171875 C8.90007673 23.89441631 8.90007673 23.89441631 9.69140625 26.15625 C10.12330968 28.73673634 9.28340741 29.69456587 7.8125 31.8125 C6.06138883 34.41733849 4.39358346 37.00236844 2.875 39.75 C-0.26506024 45.19277108 -0.26506024 45.19277108 -2 47 C-3.32 47 -4.64 47 -6 47 C-6 48.32 -6 49.64 -6 51 C-4.68 51 -3.36 51 -2 51 C-2 51.66 -2 52.32 -2 53 C-0.63875 53.185625 -0.63875 53.185625 0.75 53.375 C3.58970323 53.92109677 5.52590591 54.57263803 8 56 C8 56.66 8 57.32 8 58 C9.32 58 10.64 58 12 58 C12 58.66 12 59.32 12 60 C13.98 60.495 13.98 60.495 16 61 C16 61.66 16 62.32 16 63 C16.66 63 17.32 63 18 63 C20 66 20 66 20 69 C20.66 69 21.32 69 22 69 C22 74.61 22 80.22 22 86 C22.66 86 23.32 86 24 86 C24.02578125 86.95261719 24.0515625 87.90523438 24.078125 88.88671875 C24.13484375 90.14097656 24.1915625 91.39523438 24.25 92.6875 C24.29640625 93.92886719 24.3428125 95.17023438 24.390625 96.44921875 C25.07795845 100.45425791 26.37106669 101.99775816 29 105 C29 105.99 29 106.98 29 108 C29.66 108 30.32 108 31 108 C33.20914 111.31371 33.22481553 112.3446021 33.125 116.1875 C33.10695313 117.08855469 33.08890625 117.98960938 33.0703125 118.91796875 C33.04710938 119.60503906 33.02390625 120.29210937 33 121 C33.66 121 34.32 121 35 121 C35 122.98 35 124.96 35 127 C8.6 127 -17.8 127 -45 127 C-44.34 124.36 -43.68 121.72 -43 119 C-42.34 119 -41.68 119 -41 119 C-41 115.7 -41 112.4 -41 109 C-41.66 109 -42.32 109 -43 109 C-43 107.68 -43 106.36 -43 105 C-43.66 105 -44.32 105 -45 105 C-49 98.25 -49 98.25 -49 96 C-49.66 96 -50.32 96 -51 96 C-51.66 94.35 -52.32 92.7 -53 91 C-53.66 91 -54.32 91 -55 91 C-55.66 90.01 -56.32 89.02 -57 88 C-57.40992188 88.433125 -57.81984375 88.86625 -58.2421875 89.3125 C-58.78101563 89.869375 -59.31984375 90.42625 -59.875 91 C-60.40867187 91.556875 -60.94234375 92.11375 -61.4921875 92.6875 C-63 94 -63 94 -65 94 C-65 94.66 -65 95.32 -65 96 C-65.66 96 -66.32 96 -67 96 C-67 97.32 -67 98.64 -67 100 C-66.34 100 -65.68 100 -65 100 C-64.97315321 102.64590014 -64.95323643 105.29153096 -64.9375 107.9375 C-64.92912109 108.69224609 -64.92074219 109.44699219 -64.91210938 110.22460938 C-64.90347559 112.14994313 -64.94775667 114.07535581 -65 116 C-65.33 116.33 -65.66 116.66 -66 117 C-66.33 120.3 -66.66 123.6 -67 127 C-73.93 127 -80.86 127 -88 127 C-88 125.68 -88 124.36 -88 123 C-88.66 123 -89.32 123 -90 123 C-90 121.02 -90 119.04 -90 117 C-90.66 117 -91.32 117 -92 117 C-92 110.4 -92 103.8 -92 97 C-91.34 97 -90.68 97 -90 97 C-90 94.36 -90 91.72 -90 89 C-89.34 89 -88.68 89 -88 89 C-88 87.02 -88 85.04 -88 83 C-87.34 83 -86.68 83 -86 83 C-86.0928125 81.205625 -86.0928125 81.205625 -86.1875 79.375 C-86.20943937 75.26502405 -85.13130434 72.5521739 -83 69 C-82.34 69 -81.68 69 -81 69 C-81 68.01 -81 67.02 -81 66 C-80.34 66 -79.68 66 -79 66 C-79 65.34 -79 64.68 -79 64 C-78.34 64 -77.68 64 -77 64 C-77 61.03 -77 58.06 -77 55 C-76.34 55 -75.68 55 -75 55 C-75 53.02 -75 51.04 -75 49 C-74.34 49 -73.68 49 -73 49 C-72.67 48.01 -72.34 47.02 -72 46 C-71.34 46 -70.68 46 -70 46 C-70 45.34 -70 44.68 -70 44 C-62.01579533 38.82050312 -53.89196856 39.50372129 -44.6796875 39.66015625 C-42.67726022 39.68680452 -40.67444439 39.67593544 -38.671875 39.6640625 C-37.4869043 39.67904785 -36.30193359 39.6940332 -35.08105469 39.70947266 C-31.74704197 39.26287287 -31.74704197 39.26287287 -29.61230469 36.21435547 C-28.20702693 33.41273722 -27.50987586 31.95053776 -27.53125 28.90625 C-27.51707031 28.18566406 -27.50289063 27.46507813 -27.48828125 26.72265625 C-27.49214844 25.98917969 -27.49601562 25.25570313 -27.5 24.5 C-27.53229074 18.37552328 -27.04756389 14.7725007 -23 10 C-22.34 10 -21.68 10 -21 10 C-21 9.34 -21 8.68 -21 8 C-18 6 -18 6 -15 6 C-15 5.34 -15 4.68 -15 4 C-14.01 4 -13.02 4 -12 4 C-12 3.34 -12 2.68 -12 2 C-7.87758672 0.00125417 -4.56422451 -0.4979154 0 0 Z " fill="#41413E" transform="translate(93,1)"/>
<path d="M0 0 C0.33 0 0.66 0 1 0 C1 1.65 1 3.3 1 5 C0.01 5 -0.98 5 -2 5 C-2.33 9.62 -2.66 14.24 -3 19 C-3.66 19 -4.32 19 -5 19 C-5 19.66 -5 20.32 -5 21 C-3.68 21 -2.36 21 -1 21 C-1 20.34 -1 19.68 -1 19 C0.32 19 1.64 19 3 19 C3 18.34 3 17.68 3 17 C5.31 17 7.62 17 10 17 C10 16.34 10 15.68 10 15 C12.31 15 14.62 15 17 15 C17 14.34 17 13.68 17 13 C19.64 12.67 22.28 12.34 25 12 C25 10.68 25 9.36 25 8 C25.66 8 26.32 8 27 8 C27 6.68 27 5.36 27 4 C26.34 4 25.68 4 25 4 C25 3.01 25 2.02 25 1 C24.34 0.67 23.68 0.34 23 0 C23.99 0 24.98 0 26 0 C26 0.66 26 1.32 26 2 C26.66 2 27.32 2 28 2 C28 2.66 28 3.32 28 4 C28.66 4 29.32 4 30 4 C30 4.99 30 5.98 30 7 C30.66 7 31.32 7 32 7 C32 9.64 32 12.28 32 15 C32.66 15 33.32 15 34 15 C34 16.32 34 17.64 34 19 C34.99 19 35.98 19 37 19 C37 19.66 37 20.32 37 21 C38.98 21 40.96 21 43 21 C43 21.66 43 22.32 43 23 C44.65 23 46.3 23 48 23 C48 23.66 48 24.32 48 25 C49.65 25 51.3 25 53 25 C53 25.99 53 26.98 53 28 C53.99 28 54.98 28 56 28 C56 28.66 56 29.32 56 30 C57.32 30.66 58.64 31.32 60 32 C60 32.66 60 33.32 60 34 C60.66 34 61.32 34 62 34 C62 34.66 62 35.32 62 36 C64.97 36.33 67.94 36.66 71 37 C71 37.99 71 38.98 71 40 C69.35 40.33 67.7 40.66 66 41 C66 41.66 66 42.32 66 43 C64.515 43.495 64.515 43.495 63 44 C62.34 43.67 61.68 43.34 61 43 C61 42.34 61 41.68 61 41 C58.36 41 55.72 41 53 41 C53.495 43.475 53.495 43.475 54 46 C54.66 46 55.32 46 56 46 C56.33 46.66 56.66 47.32 57 48 C59.02463255 48.65213292 59.02463255 48.65213292 61 49 C61.495 50.98 61.495 50.98 62 53 C59.69 53 57.38 53 55 53 C55.495 55.475 55.495 55.475 56 58 C56.66 58 57.32 58 58 58 C58 58.66 58 59.32 58 60 C58.99 60 59.98 60 61 60 C61.495 61.98 61.495 61.98 62 64 C59.36 64.33 56.72 64.66 54 65 C54.33 66.98 54.66 68.96 55 71 C55.66 71 56.32 71 57 71 C57.33 72.98 57.66 74.96 58 77 C58.66 77 59.32 77 60 77 C60.12375 77.639375 60.2475 78.27875 60.375 78.9375 C60.58125 79.618125 60.7875 80.29875 61 81 C61.66 81.33 62.32 81.66 63 82 C50.13 82 37.26 82 24 82 C24.66 79.36 25.32 76.72 26 74 C26.66 74 27.32 74 28 74 C28 70.7 28 67.4 28 64 C27.34 64 26.68 64 26 64 C26 62.68 26 61.36 26 60 C25.34 60 24.68 60 24 60 C20 53.25 20 53.25 20 51 C19.34 51 18.68 51 18 51 C17.34 49.35 16.68 47.7 16 46 C15.34 46 14.68 46 14 46 C13.34 45.01 12.68 44.02 12 43 C11.59007812 43.433125 11.18015625 43.86625 10.7578125 44.3125 C10.21898437 44.869375 9.68015625 45.42625 9.125 46 C8.59132813 46.556875 8.05765625 47.11375 7.5078125 47.6875 C6 49 6 49 4 49 C4 49.66 4 50.32 4 51 C3.34 51 2.68 51 2 51 C2 52.32 2 53.64 2 55 C2.66 55 3.32 55 4 55 C4.02684679 57.64590014 4.04676357 60.29153096 4.0625 62.9375 C4.07087891 63.69224609 4.07925781 64.44699219 4.08789062 65.22460938 C4.09652441 67.14994313 4.05224333 69.07535581 4 71 C3.67 71.33 3.34 71.66 3 72 C2.67 75.3 2.34 78.6 2 82 C-4.93 82 -11.86 82 -19 82 C-19 80.68 -19 79.36 -19 78 C-19.66 78 -20.32 78 -21 78 C-21 76.02 -21 74.04 -21 72 C-21.66 72 -22.32 72 -23 72 C-23 65.4 -23 58.8 -23 52 C-22.34 52 -21.68 52 -21 52 C-21 49.36 -21 46.72 -21 44 C-20.34 44 -19.68 44 -19 44 C-19 42.02 -19 40.04 -19 38 C-18.34 38 -17.68 38 -17 38 C-17.0928125 36.205625 -17.0928125 36.205625 -17.1875 34.375 C-17.20943937 30.26502405 -16.13130434 27.5521739 -14 24 C-13.34 24 -12.68 24 -12 24 C-12 23.01 -12 22.02 -12 21 C-11.34 21 -10.68 21 -10 21 C-10 20.34 -10 19.68 -10 19 C-9.34 19 -8.68 19 -8 19 C-8 16.03 -8 13.06 -8 10 C-7.34 10 -6.68 10 -6 10 C-6 8.02 -6 6.04 -6 4 C-5.34 4 -4.68 4 -4 4 C-4 3.34 -4 2.68 -4 2 C-2.68 2 -1.36 2 0 2 C0 1.34 0 0.68 0 0 Z " fill="#141412" transform="translate(24,46)"/>
<path d="M0 0 C-0.33 1.32 -0.66 2.64 -1 4 C-1.66 4 -2.32 4 -3 4 C-3 6.31 -3 8.62 -3 11 C-3.66 11 -4.32 11 -5 11 C-5 12.65 -5 14.3 -5 16 C-5.66 16 -6.32 16 -7 16 C-7 17.32 -7 18.64 -7 20 C-7.66 20 -8.32 20 -9 20 C-9.0825 20.7425 -9.165 21.485 -9.25 22.25 C-10.14809799 25.54302595 -11.38416074 26.85976788 -14 29 C-14.66 29 -15.32 29 -16 29 C-16 29.66 -16 30.32 -16 31 C-16.66 31 -17.32 31 -18 31 C-18 32.32 -18 33.64 -18 35 C-17.34 35 -16.68 35 -16 35 C-15.97315321 37.64590014 -15.95323643 40.29153096 -15.9375 42.9375 C-15.92912109 43.69224609 -15.92074219 44.44699219 -15.91210938 45.22460938 C-15.90347559 47.14994313 -15.94775667 49.07535581 -16 51 C-16.33 51.33 -16.66 51.66 -17 52 C-17.33 55.3 -17.66 58.6 -18 62 C-24.93 62 -31.86 62 -39 62 C-39 60.68 -39 59.36 -39 58 C-39.66 58 -40.32 58 -41 58 C-41 56.02 -41 54.04 -41 52 C-41.66 52 -42.32 52 -43 52 C-43 45.4 -43 38.8 -43 32 C-42.34 32 -41.68 32 -41 32 C-41 29.36 -41 26.72 -41 24 C-40.34 24 -39.68 24 -39 24 C-39 22.02 -39 20.04 -39 18 C-38.34 18 -37.68 18 -37 18 C-37 15.36 -37 12.72 -37 10 C-36.67 10 -36.34 10 -36 10 C-36 12.97 -36 15.94 -36 19 C-36.66 19 -37.32 19 -38 19 C-38 19.66 -38 20.32 -38 21 C-37.34 21 -36.68 21 -36 21 C-36 21.66 -36 22.32 -36 23 C-34.68 23.33 -33.36 23.66 -32 24 C-32 24.66 -32 25.32 -32 26 C-31.34 26 -30.68 26 -30 26 C-30 25.01 -30 24.02 -30 23 C-28.68 23.33 -27.36 23.66 -26 24 C-26 24.99 -26 25.98 -26 27 C-25.34 27 -24.68 27 -24 27 C-24 27.66 -24 28.32 -24 29 C-23.01 29.33 -22.02 29.66 -21 30 C-21 31.65 -21 33.3 -21 35 C-20.34 35 -19.68 35 -19 35 C-19.33 32.36 -19.66 29.72 -20 27 C-20.66 27 -21.32 27 -22 27 C-22.66 24.69 -23.32 22.38 -24 20 C-24.66 20 -25.32 20 -26 20 C-26 17.36 -26 14.72 -26 12 C-25.34 12 -24.68 12 -24 12 C-23.9175 11.38125 -23.835 10.7625 -23.75 10.125 C-23 8 -23 8 -20.9375 6.75 C-20.298125 6.5025 -19.65875 6.255 -19 6 C-19 5.34 -19 4.68 -19 4 C-13.95935135 -0.03251892 -6.21316012 -2.00887394 0 0 Z " fill="#3B3A38" transform="translate(44,66)"/>
<path d="M0 0 C0.66 0 1.32 0 2 0 C2 0.66 2 1.32 2 2 C2.66 2 3.32 2 4 2 C4 2.66 4 3.32 4 4 C4.66 4 5.32 4 6 4 C6 4.66 6 5.32 6 6 C8.97 6.495 8.97 6.495 12 7 C12 7.66 12 8.32 12 9 C13.65 9 15.3 9 17 9 C17 9.66 17 10.32 17 11 C18.11375 11.144375 19.2275 11.28875 20.375 11.4375 C24 12 24 12 26 13 C26.12375 13.969375 26.2475 14.93875 26.375 15.9375 C26.6491645 19.11582828 26.6491645 19.11582828 29.0625 20.375 C30.0215625 20.684375 30.0215625 20.684375 31 21 C29.02 21 27.04 21 25 21 C25.495 23.475 25.495 23.475 26 26 C26.66 26 27.32 26 28 26 C28.495 26.99 28.495 26.99 29 28 C31.02463255 28.65213292 31.02463255 28.65213292 33 29 C33.495 30.98 33.495 30.98 34 33 C31.69 33 29.38 33 27 33 C27.495 35.475 27.495 35.475 28 38 C28.66 38 29.32 38 30 38 C30 38.66 30 39.32 30 40 C30.99 40 31.98 40 33 40 C33.495 41.98 33.495 41.98 34 44 C31.36 44.33 28.72 44.66 26 45 C26.495 47.97 26.495 47.97 27 51 C27.66 51 28.32 51 29 51 C29.495 53.97 29.495 53.97 30 57 C30.66 57 31.32 57 32 57 C32.12375 57.639375 32.2475 58.27875 32.375 58.9375 C32.58125 59.618125 32.7875 60.29875 33 61 C33.99 61.495 33.99 61.495 35 62 C22.13 62 9.26 62 -4 62 C-3.34 59.36 -2.68 56.72 -2 54 C-1.34 54 -0.68 54 0 54 C0 50.7 0 47.4 0 44 C-0.66 44 -1.32 44 -2 44 C-2 42.68 -2 41.36 -2 40 C-2.66 40 -3.32 40 -4 40 C-7.57142857 32.71428571 -7.57142857 32.71428571 -6 28 C-5.34 28 -4.68 28 -4 28 C-4 27.34 -4 26.68 -4 26 C-3.34 26 -2.68 26 -2 26 C-2 25.34 -2 24.68 -2 24 C-0.35 24 1.3 24 3 24 C3 24.66 3 25.32 3 26 C3.99 26 4.98 26 6 26 C6 26.66 6 27.32 6 28 C6.99 28 7.98 28 9 28 C9 28.99 9 29.98 9 31 C9.99 31 10.98 31 12 31 C12 31.66 12 32.32 12 33 C12.66 33 13.32 33 14 33 C14 33.66 14 34.32 14 35 C14.66 35 15.32 35 16 35 C16 35.66 16 36.32 16 37 C16.99 37 17.98 37 19 37 C19 37.66 19 38.32 19 39 C20.65 39.33 22.3 39.66 24 40 C24 40.66 24 41.32 24 42 C24.99 42 25.98 42 27 42 C27 41.34 27 40.68 27 40 C26.34 40 25.68 40 25 40 C25 39.01 25 38.02 25 37 C24.34 37 23.68 37 23 37 C23 35.68 23 34.36 23 33 C22.34 33 21.68 33 21 33 C21 32.01 21 31.02 21 30 C21.66 30 22.32 30 23 30 C23 30.66 23 31.32 23 32 C25.64 32 28.28 32 31 32 C31 31.34 31 30.68 31 30 C29.741875 29.855625 28.48375 29.71125 27.1875 29.5625 C20.87118392 28.83767684 20.87118392 28.83767684 18.375 26.4375 C16.42333444 22.97772923 16.32900578 19.94806937 16 16 C15.01 16 14.02 16 13 16 C13 15.01 13 14.02 13 13 C10.66785852 11.79371992 8.50357861 10.8345262 6 10 C6 9.34 6 8.68 6 8 C5.34 8 4.68 8 4 8 C4 7.34 4 6.68 4 6 C3.34 6 2.68 6 2 6 C2 5.34 2 4.68 2 4 C1.34 4 0.68 4 0 4 C0 2.68 0 1.36 0 0 Z " fill="#60605F" transform="translate(52,66)"/>
<path d="M0 0 C4.88474956 3.3921872 6.55295333 8.58830087 7.59375 14.203125 C7.93932483 16.46968935 8.26589392 18.73926078 8.5703125 21.01171875 C8.90007673 23.89441631 8.90007673 23.89441631 9.69140625 26.15625 C10.12330968 28.73673634 9.28340741 29.69456587 7.8125 31.8125 C6.04656598 34.43449622 4.38693432 37.03571789 2.875 39.8125 C0.2449539 44.28357837 0.2449539 44.28357837 -2 46 C-4.26171875 46.07421875 -4.26171875 46.07421875 -6.6875 45.6875 C-7.49574219 45.56761719 -8.30398437 45.44773438 -9.13671875 45.32421875 C-9.75160156 45.21722656 -10.36648437 45.11023437 -11 45 C-11 44.34 -11 43.68 -11 43 C-11.99 43 -12.98 43 -14 43 C-14.33 41.68 -14.66 40.36 -15 39 C-15.66 39 -16.32 39 -17 39 C-17.103125 37.906875 -17.20625 36.81375 -17.3125 35.6875 C-17.99727202 32.01463192 -18.27919304 31.24762314 -21 29 C-21 28.34 -21 27.68 -21 27 C-20.34 27 -19.68 27 -19 27 C-19 24.69 -19 22.38 -19 20 C-20.32 19.67 -21.64 19.34 -23 19 C-23 20.32 -23 21.64 -23 23 C-23.66 23 -24.32 23 -25 23 C-25 21.02 -25 19.04 -25 17 C-25.66 16.67 -26.32 16.34 -27 16 C-25.7260411 13.96166576 -24.38938077 11.96147874 -23 10 C-22.34 10 -21.68 10 -21 10 C-21 9.34 -21 8.68 -21 8 C-18 6 -18 6 -15 6 C-15 5.34 -15 4.68 -15 4 C-14.01 4 -13.02 4 -12 4 C-12 3.34 -12 2.68 -12 2 C-7.87758672 0.00125417 -4.56422451 -0.4979154 0 0 Z " fill="#5B5B59" transform="translate(93,1)"/>
<path d="M0 0 C0.66 0 1.32 0 2 0 C2 1.98 2 3.96 2 6 C2.66 6 3.32 6 4 6 C4 4.68 4 3.36 4 2 C5.32 2.33 6.64 2.66 8 3 C8 5.31 8 7.62 8 10 C7.34 10 6.68 10 6 10 C6.26676204 11.98491642 6.26676204 11.98491642 7 14 C7.99 14.33 8.98 14.66 10 15 C10 17.31 10 19.62 10 22 C10.66 22 11.32 22 12 22 C12.495 23.98 12.495 23.98 13 26 C13.99 26 14.98 26 16 26 C16 26.66 16 27.32 16 28 C18.31 28 20.62 28 23 28 C20 30 20 30 17 30 C17 30.66 17 31.32 17 32 C16.34 32 15.68 32 15 32 C15.33 32.66 15.66 33.32 16 34 C16.99 34.33 17.98 34.66 19 35 C19 35.66 19 36.32 19 37 C16.03 36.67 13.06 36.34 10 36 C10 35.34 10 34.68 10 34 C9.33613281 33.98582031 8.67226562 33.97164062 7.98828125 33.95703125 C-0.12187806 33.51896425 -0.12187806 33.51896425 -3.125 30.4375 C-4.053125 29.2309375 -4.053125 29.2309375 -5 28 C-5 28.66 -5 29.32 -5 30 C-4.34 30 -3.68 30 -3 30 C-3 30.66 -3 31.32 -3 32 C-3.99 32 -4.98 32 -6 32 C-6 31.34 -6 30.68 -6 30 C-6.66 30 -7.32 30 -8 30 C-8.33 28.35 -8.66 26.7 -9 25 C-9.99 25 -10.98 25 -12 25 C-12 25.99 -12 26.98 -12 28 C-11.34 28.33 -10.68 28.66 -10 29 C-11.32 29 -12.64 29 -14 29 C-14.495 27.02 -14.495 27.02 -15 25 C-15.66 25 -16.32 25 -17 25 C-17 27.31 -17 29.62 -17 32 C-16.34 32 -15.68 32 -15 32 C-15 33.32 -15 34.64 -15 36 C-15.66 36 -16.32 36 -17 36 C-17 37.32 -17 38.64 -17 40 C-19.64 40.33 -22.28 40.66 -25 41 C-25 41.66 -25 42.32 -25 43 C-27.31 43 -29.62 43 -32 43 C-32 43.66 -32 44.32 -32 45 C-34.31 45 -36.62 45 -39 45 C-39 45.66 -39 46.32 -39 47 C-40.32 47 -41.64 47 -43 47 C-43 47.66 -43 48.32 -43 49 C-44.32 49 -45.64 49 -47 49 C-47 48.34 -47 47.68 -47 47 C-46.34 47 -45.68 47 -45 47 C-45.0309375 45.205625 -45.0309375 45.205625 -45.0625 43.375 C-45.06882571 39.81995131 -44.69888875 36.49444376 -44 33 C-43.01 33 -42.02 33 -41 33 C-41.495 31.515 -41.495 31.515 -42 30 C-42.99 29.67 -43.98 29.34 -45 29 C-44.34 29 -43.68 29 -43 29 C-43 28.34 -43 27.68 -43 27 C-35.01579533 21.82050312 -26.89196856 22.50372129 -17.6796875 22.66015625 C-15.67726022 22.68680452 -13.67444439 22.67593544 -11.671875 22.6640625 C-10.4869043 22.67904785 -9.30193359 22.6940332 -8.08105469 22.70947266 C-4.74714559 22.26372634 -4.74714559 22.26372634 -2.62109375 19.21386719 C-1.23841115 16.47265729 -0.4886544 14.90395907 -0.390625 11.9140625 C-0.35839844 11.21152344 -0.32617188 10.50898438 -0.29296875 9.78515625 C-0.27878906 9.07230469 -0.26460937 8.35945313 -0.25 7.625 C-0.22035156 6.88894531 -0.19070312 6.15289062 -0.16015625 5.39453125 C-0.09011967 3.5969257 -0.04271881 1.7984621 0 0 Z " fill="#181716" transform="translate(66,18)"/>
<path d="M0 0 C0.66 0 1.32 0 2 0 C2 5.61 2 11.22 2 17 C2.66 17 3.32 17 4 17 C4.33 20.63 4.66 24.26 5 28 C5.66 28 6.32 28 7 28 C7.33 26.68 7.66 25.36 8 24 C8.66 24 9.32 24 10 24 C10 22.35 10 20.7 10 19 C10.66 19 11.32 19 12 19 C12 13.72 12 8.44 12 3 C12.66 3 13.32 3 14 3 C14.02578125 3.95261719 14.0515625 4.90523438 14.078125 5.88671875 C14.13484375 7.14097656 14.1915625 8.39523438 14.25 9.6875 C14.29640625 10.92886719 14.3428125 12.17023438 14.390625 13.44921875 C15.07795845 17.45425791 16.37106669 18.99775816 19 22 C19 22.99 19 23.98 19 25 C19.66 25 20.32 25 21 25 C23.20914 28.31371 23.22481553 29.3446021 23.125 33.1875 C23.10695312 34.08855469 23.08890625 34.98960938 23.0703125 35.91796875 C23.04710937 36.60503906 23.02390625 37.29210937 23 38 C23.66 38 24.32 38 25 38 C25 39.98 25 41.96 25 44 C12.79 44 0.58 44 -12 44 C-11.01 43.505 -11.01 43.505 -10 43 C-9.34444881 40.47266765 -9.34444881 40.47266765 -9 38 C-8.34 38 -7.68 38 -7 38 C-7 37.01 -7 36.02 -7 35 C-6.34 35 -5.68 35 -5 35 C-5 30.71 -5 26.42 -5 22 C-5.66 22 -6.32 22 -7 22 C-7 20.35 -7 18.7 -7 17 C-6.34 17 -5.68 17 -5 17 C-5.33 15.02 -5.66 13.04 -6 11 C-5.01 10.67 -4.02 10.34 -3 10 C-2.67 7.36 -2.34 4.72 -2 2 C-1.34 2 -0.68 2 0 2 C0 1.34 0 0.68 0 0 Z " fill="#595958" transform="translate(103,84)"/>
<path d="M0 0 C1 3 1 3 0 6 C-0.66 6 -1.32 6 -2 6 C-2.12375 7.299375 -2.2475 8.59875 -2.375 9.9375 C-2.5859375 12.15234375 -2.5859375 12.15234375 -3 14 C-3.99 14.495 -3.99 14.495 -5 15 C-5 16.98 -5 18.96 -5 21 C-5.66 21 -6.32 21 -7 21 C-7 22.65 -7 24.3 -7 26 C-6.34 26 -5.68 26 -5 26 C-4.67 25.34 -4.34 24.68 -4 24 C-3.97284617 25.74991334 -3.95353449 27.49994945 -3.9375 29.25 C-3.92589844 30.22453125 -3.91429688 31.1990625 -3.90234375 32.203125 C-3.98804423 34.65758678 -4.29293934 36.66168914 -5 39 C-5.66 39 -6.32 39 -7 39 C-7 39.99 -7 40.98 -7 42 C-7.66 42 -8.32 42 -9 42 C-9.33 43.65 -9.66 45.3 -10 47 C-12.8125 47.6875 -12.8125 47.6875 -16 48 C-17.875 46.6875 -17.875 46.6875 -19 45 C-19 44.34 -19 43.68 -19 43 C-19.66 43 -20.32 43 -21 43 C-21.33 41.02 -21.66 39.04 -22 37 C-22.66 37 -23.32 37 -24 37 C-24.33 35.02 -24.66 33.04 -25 31 C-22.29120665 29.64560332 -19.99066732 29.93498549 -17 30 C-17.33 28.68 -17.66 27.36 -18 26 C-18.99 26 -19.98 26 -21 26 C-21 25.34 -21 24.68 -21 24 C-21.66 24 -22.32 24 -23 24 C-23.33 22.35 -23.66 20.7 -24 19 C-22.02 18.67 -20.04 18.34 -18 18 C-18 17.01 -18 16.02 -18 15 C-19.65 14.67 -21.3 14.34 -23 14 C-23 13.34 -23 12.68 -23 12 C-23.66 12 -24.32 12 -25 12 C-25.33 10.35 -25.66 8.7 -26 7 C-23.36 7 -20.72 7 -18 7 C-18 7.66 -18 8.32 -18 9 C-16.35 9 -14.7 9 -13 9 C-13 8.34 -13 7.68 -13 7 C-11.35 6.67 -9.7 6.34 -8 6 C-8 5.01 -8 4.02 -8 3 C-5.36 2.67 -2.72 2.34 0 2 C0 1.34 0 0.68 0 0 Z " fill="#737372" transform="translate(103,80)"/>
<path d="M0 0 C0.66 0 1.32 0 2 0 C2 0.99 2 1.98 2 3 C2.66 3 3.32 3 4 3 C4 3.99 4 4.98 4 6 C5.98 6.66 7.96 7.32 10 8 C10 8.66 10 9.32 10 10 C10.66 10 11.32 10 12 10 C12 10.99 12 11.98 12 13 C12.99 13 13.98 13 15 13 C15 13.66 15 14.32 15 15 C15.99 15 16.98 15 18 15 C18 15.66 18 16.32 18 17 C18.99 17 19.98 17 21 17 C21 17.66 21 18.32 21 19 C21.99 19 22.98 19 24 19 C24 19.66 24 20.32 24 21 C24.66 21 25.32 21 26 21 C26 21.66 26 22.32 26 23 C26.66 23 27.32 23 28 23 C28 23.66 28 24.32 28 25 C29.32 25.33 30.64 25.66 32 26 C32.185625 26.9590625 32.185625 26.9590625 32.375 27.9375 C32.58125 28.618125 32.7875 29.29875 33 30 C33.66 30.33 34.32 30.66 35 31 C22.13 31 9.26 31 -4 31 C-3.34 28.36 -2.68 25.72 -2 23 C-1.34 23 -0.68 23 0 23 C0 19.7 0 16.4 0 13 C-0.66 13 -1.32 13 -2 13 C-2.33 10.69 -2.66 8.38 -3 6 C-2.34 6 -1.68 6 -1 6 C-0.67 4.02 -0.34 2.04 0 0 Z " fill="#161614" transform="translate(52,97)"/>
<path d="M0 0 C-0.33 1.32 -0.66 2.64 -1 4 C-1.66 4 -2.32 4 -3 4 C-3 6.31 -3 8.62 -3 11 C-3.66 11 -4.32 11 -5 11 C-5 12.65 -5 14.3 -5 16 C-5.66 16 -6.32 16 -7 16 C-7 17.32 -7 18.64 -7 20 C-7.99 20 -8.98 20 -10 20 C-10 20.66 -10 21.32 -10 22 C-10.66 22 -11.32 22 -12 22 C-12.66 23.32 -13.32 24.64 -14 26 C-14.66 26 -15.32 26 -16 26 C-16 26.66 -16 27.32 -16 28 C-17.98 28.99 -17.98 28.99 -20 30 C-20 29.01 -20 28.02 -20 27 C-20.66 27 -21.32 27 -22 27 C-22.66 24.69 -23.32 22.38 -24 20 C-24.66 20 -25.32 20 -26 20 C-26 17.36 -26 14.72 -26 12 C-25.34 12 -24.68 12 -24 12 C-23.9175 11.38125 -23.835 10.7625 -23.75 10.125 C-23 8 -23 8 -20.9375 6.75 C-20.298125 6.5025 -19.65875 6.255 -19 6 C-19 5.34 -19 4.68 -19 4 C-13.95935135 -0.03251892 -6.21316012 -2.00887394 0 0 Z " fill="#626260" transform="translate(44,66)"/>
<path d="M0 0 C0.66 0 1.32 0 2 0 C2 0.66 2 1.32 2 2 C3.32 2.33 4.64 2.66 6 3 C6 3.99 6 4.98 6 6 C6.99 6 7.98 6 9 6 C11.44989101 9.74235319 11.23086143 13.44225419 11.125 17.75 C11.11597656 18.44738281 11.10695313 19.14476563 11.09765625 19.86328125 C11.07419888 21.57566958 11.03833104 23.28788004 11 25 C11.66 25 12.32 25 13 25 C13 27.31 13 29.62 13 32 C13.66 32 14.32 32 15 32 C15 33.65 15 35.3 15 37 C10.71 37 6.42 37 2 37 C2 35.68 2 34.36 2 33 C1.34 33 0.68 33 0 33 C0 31.02 0 29.04 0 27 C-0.66 27 -1.32 27 -2 27 C-2 20.4 -2 13.8 -2 7 C-1.34 7 -0.68 7 0 7 C0 4.69 0 2.38 0 0 Z " fill="#121210" transform="translate(3,91)"/>
<path d="M0 0 C2.90717073 2.21863029 3.83981643 3.51944929 5 7 C5.06802967 8.72795352 5.08495645 10.45835365 5.0625 12.1875 C5.05347656 13.08855469 5.04445313 13.98960938 5.03515625 14.91796875 C5.02355469 15.60503906 5.01195313 16.29210937 5 17 C4.34 17 3.68 17 3 17 C3 18.32 3 19.64 3 21 C3.66 21 4.32 21 5 21 C5 21.66 5 22.32 5 23 C1.53004599 21.84334866 1.11443335 20.81924446 -1 18 C-1.99 17.67 -2.98 17.34 -4 17 C-4 16.34 -4 15.68 -4 15 C-4.99 15 -5.98 15 -7 15 C-6.67 15.99 -6.34 16.98 -6 18 C-7.65 18 -9.3 18 -11 18 C-11 19.65 -11 21.3 -11 23 C-11.99 22.67 -12.98 22.34 -14 22 C-14.70211894 20.34795544 -15.36971413 18.68076231 -16 17 C-16.66 16.67 -17.32 16.34 -18 16 C-18 15.34 -18 14.68 -18 14 C-19.65 14 -21.3 14 -23 14 C-23 14.66 -23 15.32 -23 16 C-23.66 16 -24.32 16 -25 16 C-24.67 14.35 -24.34 12.7 -24 11 C-23.01 10.67 -22.02 10.34 -21 10 C-21 9.34 -21 8.68 -21 8 C-18 6 -18 6 -15 6 C-15 5.34 -15 4.68 -15 4 C-14.01 4 -13.02 4 -12 4 C-12 3.34 -12 2.68 -12 2 C-7.87758672 0.00125417 -4.56422451 -0.4979154 0 0 Z " fill="#5C5C59" transform="translate(93,1)"/>
<path d="M0 0 C0.66 0 1.32 0 2 0 C2.33 1.32 2.66 2.64 3 4 C3.66 3.67 4.32 3.34 5 3 C5 2.01 5 1.02 5 0 C5.99 0 6.98 0 8 0 C8.33 1.65 8.66 3.3 9 5 C9.66 5 10.32 5 11 5 C11 5.66 11 6.32 11 7 C11.99 7 12.98 7 14 7 C14 6.34 14 5.68 14 5 C13.34 5 12.68 5 12 5 C12 4.34 12 3.68 12 3 C13.875 3.625 13.875 3.625 16 5 C17.25 8.125 17.25 8.125 18 11 C18.66 11 19.32 11 20 11 C20 11.66 20 12.32 20 13 C22.64 13.33 25.28 13.66 28 14 C28 14.66 28 15.32 28 16 C28.66 16 29.32 16 30 16 C30 16.66 30 17.32 30 18 C27.69 17.67 25.38 17.34 23 17 C23 17.66 23 18.32 23 19 C24.98 19.33 26.96 19.66 29 20 C29 20.66 29 21.32 29 22 C29.66 22 30.32 22 31 22 C31 23.65 31 25.3 31 27 C31.66 27 32.32 27 33 27 C33.495 29.475 33.495 29.475 34 32 C33.34 32 32.68 32 32 32 C32 31.34 32 30.68 32 30 C30.68 30 29.36 30 28 30 C28 29.34 28 28.68 28 28 C26.35 28 24.7 28 23 28 C23 27.34 23 26.68 23 26 C21.35 26 19.7 26 18 26 C18 25.34 18 24.68 18 24 C16.02 24 14.04 24 12 24 C12 23.34 12 22.68 12 22 C11.01 22 10.02 22 9 22 C9 20.68 9 19.36 9 18 C8.34 18 7.68 18 7 18 C7 15.36 7 12.72 7 10 C6.34 10 5.68 10 5 10 C5 9.01 5 8.02 5 7 C4.34 7 3.68 7 3 7 C3 6.34 3 5.68 3 5 C2.34 5 1.68 5 1 5 C0.67 3.35 0.34 1.7 0 0 Z " fill="#535251" transform="translate(49,43)"/>
<path d="M0 0 C4.62 0 9.24 0 14 0 C14.33 1.32 14.66 2.64 15 4 C15.66 4 16.32 4 17 4 C16.51020408 10.48979592 16.51020408 10.48979592 14.0625 12.9375 C12 14 12 14 10 14 C10 14.99 10 15.98 10 17 C7.69 17 5.38 17 3 17 C3 17.66 3 18.32 3 19 C0.69 19 -1.62 19 -4 19 C-4 19.66 -4 20.32 -4 21 C-5.32 21 -6.64 21 -8 21 C-8 21.66 -8 22.32 -8 23 C-9.32 23 -10.64 23 -12 23 C-12 22.34 -12 21.68 -12 21 C-11.34 21 -10.68 21 -10 21 C-10 18.69 -10 16.38 -10 14 C-9.34 14 -8.68 14 -8 14 C-8 12.02 -8 10.04 -8 8 C-7.01 8 -6.02 8 -5 8 C-5 6.35 -5 4.7 -5 3 C-3.35 2.67 -1.7 2.34 0 2 C0 1.34 0 0.68 0 0 Z " fill="#666665" transform="translate(31,44)"/>
<path d="M0 0 C0.66 0 1.32 0 2 0 C2 5.61 2 11.22 2 17 C2.66 17 3.32 17 4 17 C4.33 20.63 4.66 24.26 5 28 C5.66 28 6.32 28 7 28 C7.33 26.68 7.66 25.36 8 24 C8.66 24 9.32 24 10 24 C10 23.34 10 22.68 10 22 C10.66 22 11.32 22 12 22 C12 22.66 12 23.32 12 24 C12.66 24 13.32 24 14 24 C15.49821059 27.37097383 16 29.20442119 16 33 C14.02 33.495 14.02 33.495 12 34 C12 34.66 12 35.32 12 36 C11.34 36 10.68 36 10 36 C10 36.66 10 37.32 10 38 C8.02 38.66 6.04 39.32 4 40 C4 40.66 4 41.32 4 42 C3.34 42 2.68 42 2 42 C2 40.68 2 39.36 2 38 C1.01 38 0.02 38 -1 38 C-1 39.65 -1 41.3 -1 43 C-1.33 43 -1.66 43 -2 43 C-2.76451135 36.8655609 -3.19322271 30.86803113 -3.1875 24.6875 C-3.18741943 23.86443359 -3.18733887 23.04136719 -3.18725586 22.19335938 C-3.11672762 14.60897511 -2.40933993 7.2280198 0 0 Z " fill="#141412" transform="translate(103,84)"/>
<path d="M0 0 C0.33 0 0.66 0 1 0 C1.02715383 1.74991334 1.04646551 3.49994945 1.0625 5.25 C1.07410156 6.22453125 1.08570312 7.1990625 1.09765625 8.203125 C1.01195577 10.65758678 0.70706066 12.66168914 0 15 C-0.66 15 -1.32 15 -2 15 C-2 15.99 -2 16.98 -2 18 C-2.66 18 -3.32 18 -4 18 C-4.33 19.65 -4.66 21.3 -5 23 C-7.8125 23.6875 -7.8125 23.6875 -11 24 C-12.875 22.6875 -12.875 22.6875 -14 21 C-14 20.34 -14 19.68 -14 19 C-14.66 19 -15.32 19 -16 19 C-16.33 17.02 -16.66 15.04 -17 13 C-17.66 13 -18.32 13 -19 13 C-19.33 11.02 -19.66 9.04 -20 7 C-16.75 6.3125 -16.75 6.3125 -13 6 C-10.8125 7.5 -10.8125 7.5 -9 9 C-6.79199472 8.78282648 -6.79199472 8.78282648 -5 8 C-4.67 6.68 -4.34 5.36 -4 4 C-3.34 4 -2.68 4 -2 4 C-2 3.34 -2 2.68 -2 2 C-1.34 2 -0.68 2 0 2 C0 1.34 0 0.68 0 0 Z " fill="#BEC0BE" transform="translate(98,104)"/>
<path d="M0 0 C2.24534013 3.3680102 2.52562813 5.46284352 3.0625 9.4375 C3.6208858 13.85603664 3.6208858 13.85603664 4.703125 18.15625 C5.12851735 20.79816041 4.17261288 21.89130681 2.6875 24.0625 C2.23761719 24.73410156 1.78773437 25.40570313 1.32421875 26.09765625 C0.88722656 26.72542969 0.45023438 27.35320313 0 28 C-0.66 28.99 -1.32 29.98 -2 31 C-2 30.34 -2 29.68 -2 29 C-2.66 28.67 -3.32 28.34 -4 28 C-3.505 23.545 -3.505 23.545 -3 19 C-6.3 19 -9.6 19 -13 19 C-13.33 18.01 -13.66 17.02 -14 16 C-14.66 15.67 -15.32 15.34 -16 15 C-16 13.35 -16 11.7 -16 10 C-14.35 10 -12.7 10 -11 10 C-11.66 9.01 -12.32 8.02 -13 7 C-12.67 6.01 -12.34 5.02 -12 4 C-10.5 5.375 -10.5 5.375 -9 7 C-9 7.66 -9 8.32 -9 9 C-8.443125 9.061875 -7.88625 9.12375 -7.3125 9.1875 C-4.05012827 10.33373872 -2.31332126 12.49390197 0 15 C0 14.34 0 13.68 0 13 C-0.66 13 -1.32 13 -2 13 C-2 11.68 -2 10.36 -2 9 C-1.34 9 -0.68 9 0 9 C0 6.03 0 3.06 0 0 Z " fill="#857C6B" transform="translate(98,9)"/>
<path d="M0 0 C0 1.98 0 3.96 0 6 C-0.66 6 -1.32 6 -2 6 C-2.33 8.64 -2.66 11.28 -3 14 C-3.66 14 -4.32 14 -5 14 C-5.0825 14.61875 -5.165 15.2375 -5.25 15.875 C-6 18 -6 18 -7.8125 19.3125 C-10.32299678 20.10151327 -11.55492066 19.87324262 -14 19 C-14 18.34 -14 17.68 -14 17 C-14.66 17 -15.32 17 -16 17 C-15.67 13.7 -15.34 10.4 -15 7 C-14.34 7 -13.68 7 -13 7 C-13 6.01 -13 5.02 -13 4 C-9.54109844 -0.49657203 -5.31709523 -0.12084307 0 0 Z " fill="#BEBFBE" transform="translate(39,69)"/>
<path d="M0 0 C0.66 0 1.32 0 2 0 C2 0.66 2 1.32 2 2 C2.66 2 3.32 2 4 2 C4 2.66 4 3.32 4 4 C4.66 4 5.32 4 6 4 C6 4.99 6 5.98 6 7 C7.32 7 8.64 7 10 7 C10 17.89 10 28.78 10 40 C9.34 40 8.68 40 8 40 C7.67 40.99 7.34 41.98 7 43 C6.01751476 38.9472484 5.91840426 35.16138263 6 31 C5.34 31 4.68 31 4 31 C1.70387244 21.58997722 1.70387244 21.58997722 2 17 C3.32 17.33 4.64 17.66 6 18 C6 18.66 6 19.32 6 20 C6.66 20 7.32 20 8 20 C8 18.35 8 16.7 8 15 C7.01 15 6.02 15 5 15 C4.67 12.69 4.34 10.38 4 8 C3.34 8 2.68 8 2 8 C2 7.34 2 6.68 2 6 C1.34 6 0.68 6 0 6 C0 4.02 0 2.04 0 0 Z " fill="#7B7B7A" transform="translate(105,63)"/>
<path d="M0 0 C2.90717073 2.21863029 3.83981643 3.51944929 5 7 C5.06802967 8.72795352 5.08495645 10.45835365 5.0625 12.1875 C5.05347656 13.08855469 5.04445313 13.98960938 5.03515625 14.91796875 C5.02355469 15.60503906 5.01195313 16.29210937 5 17 C4.34 17 3.68 17 3 17 C3 18.32 3 19.64 3 21 C3.66 21 4.32 21 5 21 C5 21.66 5 22.32 5 23 C1.53004599 21.84334866 1.11443335 20.81924446 -1 18 C-1.99 17.67 -2.98 17.34 -4 17 C-4 16.34 -4 15.68 -4 15 C-4.66 14.67 -5.32 14.34 -6 14 C-5.34 14 -4.68 14 -4 14 C-4.87472593 9.04485498 -4.87472593 9.04485498 -8.125 5.5625 C-8.74375 5.376875 -9.3625 5.19125 -10 5 C-9.67 4.34 -9.34 3.68 -9 3 C-9.99 2.67 -10.98 2.34 -12 2 C-7.87758672 0.00125417 -4.56422451 -0.4979154 0 0 Z " fill="#606160" transform="translate(93,1)"/>
<path d="M0 0 C2.97 0.495 2.97 0.495 6 1 C6 1.99 6 2.98 6 4 C6.99 3.67 7.98 3.34 9 3 C9.33 2.01 9.66 1.02 10 0 C11.65 0.33 13.3 0.66 15 1 C15.33 2.32 15.66 3.64 16 5 C16.66 5 17.32 5 18 5 C18 8.3 18 11.6 18 15 C17.01 15 16.02 15 15 15 C15 15.99 15 16.98 15 18 C13.68 18 12.36 18 11 18 C11 18.66 11 19.32 11 20 C9.35 20.33 7.7 20.66 6 21 C6.66 20.67 7.32 20.34 8 20 C8.65772428 16.97065509 8.65772428 16.97065509 9 14 C10.98 13.34 12.96 12.68 15 12 C15 11.34 15 10.68 15 10 C13.02 10.66 11.04 11.32 9 12 C9 11.01 9 10.02 9 9 C10.32 8.67 11.64 8.34 13 8 C13 7.01 13 6.02 13 5 C11.35 5.33 9.7 5.66 8 6 C8 7.65 8 9.3 8 11 C6.02 11 4.04 11 2 11 C-1.07692308 5.70769231 -1.07692308 5.70769231 -0.6875 2.125 C-0.460625 1.42375 -0.23375 0.7225 0 0 Z " fill="#ACACAA" transform="translate(85,58)"/>
<path d="M0 0 C0.66 0 1.32 0 2 0 C2 0.66 2 1.32 2 2 C2.66 2 3.32 2 4 2 C4 2.66 4 3.32 4 4 C4.66 4 5.32 4 6 4 C6 4.66 6 5.32 6 6 C8.97 6.495 8.97 6.495 12 7 C12 7.66 12 8.32 12 9 C13.65 9 15.3 9 17 9 C17 9.66 17 10.32 17 11 C18.11375 11.144375 19.2275 11.28875 20.375 11.4375 C24 12 24 12 26 13 C26.33333333 15 26.66666667 17 27 19 C27.66 19.33 28.32 19.66 29 20 C24.71 20 20.42 20 16 20 C16 18.68 16 17.36 16 16 C15.01 16 14.02 16 13 16 C13 15.01 13 14.02 13 13 C10.66785852 11.79371992 8.50357861 10.8345262 6 10 C6 9.34 6 8.68 6 8 C5.34 8 4.68 8 4 8 C4 7.34 4 6.68 4 6 C3.34 6 2.68 6 2 6 C2 5.34 2 4.68 2 4 C1.34 4 0.68 4 0 4 C0 2.68 0 1.36 0 0 Z " fill="#5B5B5A" transform="translate(52,66)"/>
<path d="M0 0 C1.98 0 3.96 0 6 0 C6.33 1.32 6.66 2.64 7 4 C7.66 4 8.32 4 9 4 C8.875 7.25 8.875 7.25 8 11 C5.01207626 13.64838695 3.12158978 14.90247045 -0.875 15.25 C-1.57625 15.1675 -2.2775 15.085 -3 15 C-3.33 14.01 -3.66 13.02 -4 12 C-4.66 12 -5.32 12 -6 12 C-6 10.35 -6 8.7 -6 7 C-5.34 7 -4.68 7 -4 7 C-4 6.01 -4 5.02 -4 4 C-3.34 4 -2.68 4 -2 4 C-2 3.34 -2 2.68 -2 2 C-1.34 2 -0.68 2 0 2 C0 1.34 0 0.68 0 0 Z " fill="#BFC0BE" transform="translate(39,44)"/>
<path d="M0 0 C4.62 0 9.24 0 14 0 C14 0.33 14 0.66 14 1 C12.02 1 10.04 1 8 1 C8.33 2.65 8.66 4.3 9 6 C9.66 6 10.32 6 11 6 C11.33 6.66 11.66 7.32 12 8 C14.02463255 8.65213292 14.02463255 8.65213292 16 9 C16.33 10.32 16.66 11.64 17 13 C14.69 13 12.38 13 10 13 C10.33 14.65 10.66 16.3 11 18 C11.66 18 12.32 18 13 18 C13 18.66 13 19.32 13 20 C13.99 20 14.98 20 16 20 C16.33 21.32 16.66 22.64 17 24 C15.02 24 13.04 24 11 24 C11 22.68 11 21.36 11 20 C10.01 20 9.02 20 8 20 C8 19.01 8 18.02 8 17 C7.34 17 6.68 17 6 17 C6 15.68 6 14.36 6 13 C5.34 13 4.68 13 4 13 C4 12.01 4 11.02 4 10 C4.66 10 5.32 10 6 10 C6 10.66 6 11.32 6 12 C8.64 12 11.28 12 14 12 C14 11.34 14 10.68 14 10 C12.741875 9.855625 11.48375 9.71125 10.1875 9.5625 C3.76898734 8.82594937 3.76898734 8.82594937 1.3125 6.1875 C0 4 0 4 0 0 Z " fill="#666665" transform="translate(69,86)"/>
<path d="M0 0 C1.73662334 3.22515763 2.8905928 6.51329166 4 10 C5.98 10 7.96 10 10 10 C10 8.35 10 6.7 10 5 C11.65 4.67 13.3 4.34 15 4 C15 4.99 15 5.98 15 7 C13.68 7.33 12.36 7.66 11 8 C11 8.99 11 9.98 11 11 C13.99152582 10.22520264 13.99152582 10.22520264 17 9 C17.33 8.01 17.66 7.02 18 6 C18 7.65 18 9.3 18 11 C15.69 11.66 13.38 12.32 11 13 C9.98459888 17.10223585 9.98459888 17.10223585 11 21 C4.375 22.125 4.375 22.125 1 21 C-1.1875 19.0625 -1.1875 19.0625 -3 17 C-3 16.34 -3 15.68 -3 15 C-3.99 14.67 -4.98 14.34 -6 14 C-4.68 14 -3.36 14 -2 14 C-2 14.66 -2 15.32 -2 16 C-1.34 16 -0.68 16 0 16 C0.33 15.34 0.66 14.68 1 14 C1.33 15.32 1.66 16.64 2 18 C2.66 18 3.32 18 4 18 C4.33 16.02 4.66 14.04 5 12 C4.34 12 3.68 12 3 12 C2.67 10.68 2.34 9.36 2 8 C1.34 8 0.68 8 0 8 C-0.98120464 4.94736336 -0.98120464 3.05263664 0 0 Z " fill="#3C3C3A" transform="translate(83,59)"/>
<path d="M0 0 C2.31 0 4.62 0 7 0 C6.01 0.495 6.01 0.495 5 1 C5.33 2.010625 5.66 3.02125 6 4.0625 C7.07001321 7.75479911 7.15704155 11.15248207 7 15 C7.66 15 8.32 15 9 15 C9.66 19.62 10.32 24.24 11 29 C10.34 29 9.68 29 9 29 C8.67 30.32 8.34 31.64 8 33 C7.34 33 6.68 33 6 33 C5.67 29.37 5.34 25.74 5 22 C4.34 22 3.68 22 3 22 C3 16.39 3 10.78 3 5 C2.34 4.67 1.68 4.34 1 4 C1 3.67 1 3.34 1 3 C-0.65 3 -2.3 3 -4 3 C-2.68 2.67 -1.36 2.34 0 2 C0 1.34 0 0.68 0 0 Z " fill="#676766" transform="translate(102,79)"/>
<path d="M0 0 C0.66 0 1.32 0 2 0 C2 0.99 2 1.98 2 3 C2.66 3 3.32 3 4 3 C4.66 4.65 5.32 6.3 6 8 C6.99 8 7.98 8 9 8 C9 5.69 9 3.38 9 1 C9.33 1 9.66 1 10 1 C10.02698189 2.62490954 10.04638757 4.24994633 10.0625 5.875 C10.07410156 6.77992187 10.08570312 7.68484375 10.09765625 8.6171875 C10 11 10 11 9 13 C8.34 13 7.68 13 7 13 C7 12.34 7 11.68 7 11 C6.34 11 5.68 11 5 11 C5 10.34 5 9.68 5 9 C4.01 9 3.02 9 2 9 C1.67 9.99 1.34 10.98 1 12 C1 11.01 1 10.02 1 9 C0.01 9 -0.98 9 -2 9 C-2 9.66 -2 10.32 -2 11 C-3.32 11 -4.64 11 -6 11 C-6 11.66 -6 12.32 -6 13 C-10.16138263 13.08159574 -13.9472484 12.98248524 -18 12 C-17.67 11.34 -17.34 10.68 -17 10 C-14.69 10 -12.38 10 -10 10 C-10 9.34 -10 8.68 -10 8 C-9.34 8 -8.68 8 -8 8 C-8 7.34 -8 6.68 -8 6 C-6.68 6 -5.36 6 -4 6 C-4 5.01 -4 4.02 -4 3 C-2.68 3 -1.36 3 0 3 C0 2.01 0 1.02 0 0 Z " fill="#3D3D3C" transform="translate(104,70)"/>
<path d="M0 0 C0 0.66 0 1.32 0 2 C-1.32 2 -2.64 2 -4 2 C-4 3.32 -4 4.64 -4 6 C-2.68 6 -1.36 6 0 6 C0 6.66 0 7.32 0 8 C0.9075 8.12375 1.815 8.2475 2.75 8.375 C5.58970323 8.92109677 7.52590591 9.57263803 10 11 C10 11.66 10 12.32 10 13 C11.32 13 12.64 13 14 13 C14 13.66 14 14.32 14 15 C15.32 15.33 16.64 15.66 18 16 C18 16.66 18 17.32 18 18 C18.66 18 19.32 18 20 18 C22 21 22 21 22 24 C21.34 24 20.68 24 20 24 C20 23.01 20 22.02 20 21 C19.34 21 18.68 21 18 21 C18 20.34 18 19.68 18 19 C17.34 19 16.68 19 16 19 C16 18.34 16 17.68 16 17 C15.34 17 14.68 17 14 17 C14 18.98 14 20.96 14 23 C14.66 23 15.32 23 16 23 C16 23.66 16 24.32 16 25 C16.66 25 17.32 25 18 25 C17.67 26.32 17.34 27.64 17 29 C17 28.34 17 27.68 17 27 C16.34 27 15.68 27 15 27 C15 26.01 15 25.02 15 24 C14.34 24 13.68 24 13 24 C12.67 24.99 12.34 25.98 12 27 C12 23.7 12 20.4 12 17 C11.34 17 10.68 17 10 17 C9.67 15.68 9.34 14.36 9 13 C6.36 12.67 3.72 12.34 1 12 C1 11.34 1 10.68 1 10 C0.34 10 -0.32 10 -1 10 C-1 9.34 -1 8.68 -1 8 C-2.65 8.33 -4.3 8.66 -6 9 C-6 8.34 -6 7.68 -6 7 C-7.32 6.67 -8.64 6.34 -10 6 C-10 5.34 -10 4.68 -10 4 C-9.34 4 -8.68 4 -8 4 C-8 3.34 -8 2.68 -8 2 C-2.25 0 -2.25 0 0 0 Z " fill="#414140" transform="translate(91,46)"/>
<path d="M0 0 C0.33 0 0.66 0 1 0 C1 2.97 1 5.94 1 9 C0.34 9 -0.32 9 -1 9 C-1 9.66 -1 10.32 -1 11 C-0.34 11 0.32 11 1 11 C1 11.66 1 12.32 1 13 C2.32 13.33 3.64 13.66 5 14 C5 14.99 5 15.98 5 17 C6.32 17.33 7.64 17.66 9 18 C9 18.99 9 19.98 9 21 C9.66 21 10.32 21 11 21 C11 21.66 11 22.32 11 23 C11.66 23 12.32 23 13 23 C13 23.66 13 24.32 13 25 C13.66 25 14.32 25 15 25 C15 25.99 15 26.98 15 28 C15.66 28 16.32 28 17 28 C17 28.66 17 29.32 17 30 C17.66 30 18.32 30 19 30 C19 31.32 19 32.64 19 34 C18.01 34 17.02 34 16 34 C15.67 32.68 15.34 31.36 15 30 C14.34 30 13.68 30 13 30 C13 29.34 13 28.68 13 28 C11.68 28 10.36 28 9 28 C9 27.01 9 26.02 9 25 C8.01 25 7.02 25 6 25 C5.67 23.68 5.34 22.36 5 21 C4.01 21 3.02 21 2 21 C2 20.01 2 19.02 2 18 C0.68 17.67 -0.64 17.34 -2 17 C-2 16.34 -2 15.68 -2 15 C-2.66 14.67 -3.32 14.34 -4 14 C-3.34 14 -2.68 14 -2 14 C-2 12.02 -2 10.04 -2 8 C-1.34 8 -0.68 8 0 8 C0 5.36 0 2.72 0 0 Z " fill="#53524F" transform="translate(7,76)"/>
<path d="M0 0 C1.11310547 0.01353516 2.22621094 0.02707031 3.37304688 0.04101562 C6.10337212 0.07617003 8.83267744 0.12537894 11.5625 0.1875 C11.5625 1.5075 11.5625 2.8275 11.5625 4.1875 C12.2225 4.5175 12.8825 4.8475 13.5625 5.1875 C12.2425 5.1875 10.9225 5.1875 9.5625 5.1875 C9.2325 3.8675 8.9025 2.5475 8.5625 1.1875 C7.9025 1.1875 7.2425 1.1875 6.5625 1.1875 C6.5625 3.4975 6.5625 5.8075 6.5625 8.1875 C7.2225 8.1875 7.8825 8.1875 8.5625 8.1875 C8.5625 9.5075 8.5625 10.8275 8.5625 12.1875 C7.9025 12.1875 7.2425 12.1875 6.5625 12.1875 C6.5625 13.5075 6.5625 14.8275 6.5625 16.1875 C2.6025 16.6825 2.6025 16.6825 -1.4375 17.1875 C-0.65375 16.671875 0.13 16.15625 0.9375 15.625 C4.11844248 12.6712677 4.67743693 10.37143452 5.5625 6.1875 C4.9025 6.1875 4.2425 6.1875 3.5625 6.1875 C3.2325 5.1975 2.9025 4.2075 2.5625 3.1875 C-4.3675 2.6925 -4.3675 2.6925 -11.4375 2.1875 C-11.4375 2.8475 -11.4375 3.5075 -11.4375 4.1875 C-13.0875 4.5175 -14.7375 4.8475 -16.4375 5.1875 C-16.4375 6.8375 -16.4375 8.4875 -16.4375 10.1875 C-17.4275 10.1875 -18.4175 10.1875 -19.4375 10.1875 C-19.4375 12.1675 -19.4375 14.1475 -19.4375 16.1875 C-20.0975 15.8575 -20.7575 15.5275 -21.4375 15.1875 C-21.1075 13.2075 -20.7775 11.2275 -20.4375 9.1875 C-19.4475 9.1875 -18.4575 9.1875 -17.4375 9.1875 C-17.7675 8.1975 -18.0975 7.2075 -18.4375 6.1875 C-19.4275 5.8575 -20.4175 5.5275 -21.4375 5.1875 C-20.7775 5.1875 -20.1175 5.1875 -19.4375 5.1875 C-19.4375 4.5275 -19.4375 3.8675 -19.4375 3.1875 C-13.00001935 -0.33140979 -7.22335359 -0.16718741 0 0 Z " fill="#1F201E" transform="translate(42.4375,41.8125)"/>
<path d="M0 0 C1 3 1 3 0 6 C-0.66 6 -1.32 6 -2 6 C-1.938125 7.8253125 -1.938125 7.8253125 -1.875 9.6875 C-2.11328125 11.88671875 -2.11328125 11.88671875 -3 14 C-6.1147866 16.23394405 -9.42439923 17.65022693 -13 19 C-13.19477739 17.37585622 -13.38059458 15.75063577 -13.5625 14.125 C-13.66691406 13.22007813 -13.77132812 12.31515625 -13.87890625 11.3828125 C-14 9 -14 9 -13 7 C-10.4375 6.375 -10.4375 6.375 -8 6 C-8 5.01 -8 4.02 -8 3 C-5.36 2.67 -2.72 2.34 0 2 C0 1.34 0 0.68 0 0 Z " fill="#C1C2C1" transform="translate(103,80)"/>
<path d="M0 0 C2.64 0 5.28 0 8 0 C12.04654428 6.91284647 11.26901851 14.25824503 11 22 C10.01 21.67 9.02 21.34 8 21 C8 20.34 8 19.68 8 19 C7.01 19 6.02 19 5 19 C5 18.34 5 17.68 5 17 C4.34 17 3.68 17 3 17 C2.67 15.35 2.34 13.7 2 12 C3.98 11.67 5.96 11.34 8 11 C8 10.01 8 9.02 8 8 C6.35 7.67 4.7 7.34 3 7 C3 6.34 3 5.68 3 5 C2.34 5 1.68 5 1 5 C0.67 3.35 0.34 1.7 0 0 Z " fill="#BCBCBC" transform="translate(77,87)"/>
<path d="M0 0 C2.24534013 3.3680102 2.52562813 5.46284352 3.0625 9.4375 C3.6208858 13.85603664 3.6208858 13.85603664 4.703125 18.15625 C5.12851735 20.79816041 4.17261288 21.89130681 2.6875 24.0625 C2.23761719 24.73410156 1.78773437 25.40570313 1.32421875 26.09765625 C0.88722656 26.72542969 0.45023437 27.35320313 0 28 C-0.66 28.99 -1.32 29.98 -2 31 C-2 30.34 -2 29.68 -2 29 C-2.66 28.67 -3.32 28.34 -4 28 C-3.34 23.71 -2.68 19.42 -2 15 C-1.34 15 -0.68 15 0 15 C0 14.34 0 13.68 0 13 C-0.66 13 -1.32 13 -2 13 C-2 11.68 -2 10.36 -2 9 C-1.34 9 -0.68 9 0 9 C0 6.03 0 3.06 0 0 Z " fill="#CAC8C1" transform="translate(98,9)"/>
<path d="M0 0 C1.32 0 2.64 0 4 0 C4 1.32 4 2.64 4 4 C4.66 4 5.32 4 6 4 C6.66 7.63 7.32 11.26 8 15 C8.99 15 9.98 15 11 15 C11 15.66 11 16.32 11 17 C12.051875 17.144375 13.10375 17.28875 14.1875 17.4375 C17.15460549 17.87526966 20.06794366 18.37804866 23 19 C23 19.66 23 20.32 23 21 C25.31 21.33 27.62 21.66 30 22 C30.33 23.65 30.66 25.3 31 27 C30.34 27 29.68 27 29 27 C29 26.34 29 25.68 29 25 C27.68 25 26.36 25 25 25 C25 24.34 25 23.68 25 23 C23.35 23 21.7 23 20 23 C20 22.34 20 21.68 20 21 C18.35 21 16.7 21 15 21 C15 20.34 15 19.68 15 19 C13.02 19 11.04 19 9 19 C9 18.34 9 17.68 9 17 C8.01 17 7.02 17 6 17 C6 15.68 6 14.36 6 13 C5.34 13 4.68 13 4 13 C4 10.36 4 7.72 4 5 C3.34 5 2.68 5 2 5 C2 4.01 2 3.02 2 2 C1.34 2 0.68 2 0 2 C0 1.34 0 0.68 0 0 Z " fill="#B3B4B3" transform="translate(52,48)"/>
<path d="M0 0 C0.66 0.33 1.32 0.66 2 1 C2 1.66 2 2.32 2 3 C2.66 3 3.32 3 4 3 C4 3.66 4 4.32 4 5 C6.64 5.33 9.28 5.66 12 6 C12 6.66 12 7.32 12 8 C12.66 8 13.32 8 14 8 C14 8.66 14 9.32 14 10 C11.69 9.67 9.38 9.34 7 9 C7 9.66 7 10.32 7 11 C9.97 11.495 9.97 11.495 13 12 C13.33 13.32 13.66 14.64 14 16 C13.34 16 12.68 16 12 16 C12 15.34 12 14.68 12 14 C10.9275 13.855625 9.855 13.71125 8.75 13.5625 C6.08337051 13.16250558 3.58600271 12.72408076 1 12 C1 11.34 1 10.68 1 10 C0.01 10 -0.98 10 -2 10 C-2 9.34 -2 8.68 -2 8 C-2.66 8 -3.32 8 -4 8 C-4 5.69 -4 3.38 -4 1 C-3.34 1 -2.68 1 -2 1 C-2 2.65 -2 4.3 -2 6 C-1.34 6 -0.68 6 0 6 C0 6.66 0 7.32 0 8 C2.97 8.495 2.97 8.495 6 9 C6 8.34 6 7.68 6 7 C4.68 7 3.36 7 2 7 C0.5393715 4.35261084 0 3.10551666 0 0 Z " fill="#B3B4B2" transform="translate(65,51)"/>
<path d="M0 0 C0 0.66 0 1.32 0 2 C0.66 2 1.32 2 2 2 C2.625 4.3125 2.625 4.3125 3 7 C2.01 8.485 2.01 8.485 1 10 C-1.16874252 9.49396008 -2.99967627 9.00016187 -5 8 C-5 7.34 -5 6.68 -5 6 C-6.65 6 -8.3 6 -10 6 C-10 6.66 -10 7.32 -10 8 C-10.66 8 -11.32 8 -12 8 C-11.67 6.35 -11.34 4.7 -11 3 C-10.01 2.67 -9.02 2.34 -8 2 C-8 1.34 -8 0.68 -8 0 C-5.13822943 -1.43088528 -3.06624227 -0.59991697 0 0 Z " fill="#1A1A18" transform="translate(80,9)"/>
<path d="M0 0 C0.66 0 1.32 0 2 0 C2.02578125 0.95261719 2.0515625 1.90523438 2.078125 2.88671875 C2.13484375 4.14097656 2.1915625 5.39523438 2.25 6.6875 C2.29640625 7.92886719 2.3428125 9.17023438 2.390625 10.44921875 C3.07953445 14.46344112 4.32144505 16.01978256 7 19 C7.9375 22.125 7.9375 22.125 8 25 C6.5625 26.875 6.5625 26.875 5 28 C2.64046906 25.64046906 2.50858587 24.22104383 2 21 C1.34 21 0.68 21 0 21 C0 20.34 0 19.68 0 19 C-0.66 19 -1.32 19 -2 19 C-2 18.01 -2 17.02 -2 16 C-1.34 16 -0.68 16 0 16 C0 10.72 0 5.44 0 0 Z " fill="#3D3D3B" transform="translate(115,87)"/>
<path d="M0 0 C0.33 0 0.66 0 1 0 C1 1.65 1 3.3 1 5 C0.01 5 -0.98 5 -2 5 C-2.33 9.62 -2.66 14.24 -3 19 C-3.66 19 -4.32 19 -5 19 C-5.33 19.66 -5.66 20.32 -6 21 C-7.32 21 -8.64 21 -10 21 C-10 20.34 -10 19.68 -10 19 C-9.34 19 -8.68 19 -8 19 C-8 16.03 -8 13.06 -8 10 C-7.34 10 -6.68 10 -6 10 C-6 8.02 -6 6.04 -6 4 C-5.34 4 -4.68 4 -4 4 C-4 3.34 -4 2.68 -4 2 C-2.68 2 -1.36 2 0 2 C0 1.34 0 0.68 0 0 Z " fill="#161714" transform="translate(24,46)"/>
<path d="M0 0 C0.66 0 1.32 0 2 0 C2.33 1.32 2.66 2.64 3 4 C3.66 4 4.32 4 5 4 C7.4223898 7.75854925 7.2671569 11.17462374 7.25 15.5625 C7.25773437 16.23474609 7.26546875 16.90699219 7.2734375 17.59960938 C7.25880148 21.28422836 7.09589902 22.85615148 5 26 C4.01751476 21.9472484 3.91840426 18.16138263 4 14 C3.34 14 2.68 14 2 14 C-0.29612756 4.58997722 -0.29612756 4.58997722 0 0 Z " fill="#C1C2C1" transform="translate(107,80)"/>
<path d="M0 0 C0.66 0 1.32 0 2 0 C2 1.32 2 2.64 2 4 C2.66 4 3.32 4 4 4 C4 5.98 4 7.96 4 10 C-2.93 10 -9.86 10 -17 10 C-17 9.67 -17 9.34 -17 9 C-15.02 9 -13.04 9 -11 9 C-11 8.34 -11 7.68 -11 7 C-7.90521121 5.96840374 -6.47368607 6.02517138 -3.3125 6.4375 C-2.50425781 6.53933594 -1.69601563 6.64117187 -0.86328125 6.74609375 C-0.24839844 6.82988281 0.36648437 6.91367188 1 7 C1 6.34 1 5.68 1 5 C-1.64 5 -4.28 5 -7 5 C-5 3 -5 3 -2.9375 2.5 C-2.298125 2.335 -1.65875 2.17 -1 2 C-0.67 1.34 -0.34 0.68 0 0 Z " fill="#282726" transform="translate(124,118)"/>
<path d="M0 0 C0.99 0.33 1.98 0.66 3 1 C2.67 3.64 2.34 6.28 2 9 C2.66 9 3.32 9 4 9 C4.33 10.32 4.66 11.64 5 13 C5.66 13 6.32 13 7 13 C7 15.64 7 18.28 7 21 C6.67 20.34 6.34 19.68 6 19 C5.34 19 4.68 19 4 19 C3.67 18.01 3.34 17.02 3 16 C2.34 15.67 1.68 15.34 1 15 C1 14.01 1 13.02 1 12 C0.34 12 -0.32 12 -1 12 C-2.42857143 3.42857143 -2.42857143 3.42857143 0 0 Z " fill="#131311" transform="translate(81,58)"/>
<path d="M0 0 C1.32 0.33 2.64 0.66 4 1 C4 1.99 4 2.98 4 4 C4.66 4 5.32 4 6 4 C6 4.66 6 5.32 6 6 C6.99 6.33 7.98 6.66 9 7 C9 8.65 9 10.3 9 12 C9.66 12 10.32 12 11 12 C11 13.65 11 15.3 11 17 C10.67 16.34 10.34 15.68 10 15 C9.34 15 8.68 15 8 15 C8 14.01 8 13.02 8 12 C7.34 12 6.68 12 6 12 C6 11.34 6 10.68 6 10 C5.34 10 4.68 10 4 10 C4 9.34 4 8.68 4 8 C3.34 8 2.68 8 2 8 C2 7.01 2 6.02 2 5 C0.68 4.34 -0.64 3.68 -2 3 C-1.34 3 -0.68 3 0 3 C0 2.01 0 1.02 0 0 Z " fill="#3E3E3C" transform="translate(14,89)"/>
<path d="M0 0 C1.32 0 2.64 0 4 0 C4 0.66 4 1.32 4 2 C5.32 2.33 6.64 2.66 8 3 C8 3.66 8 4.32 8 5 C8.66 5 9.32 5 10 5 C12 8 12 8 12 11 C11.34 11 10.68 11 10 11 C10 10.01 10 9.02 10 8 C9.34 8 8.68 8 8 8 C8 7.34 8 6.68 8 6 C7.34 6 6.68 6 6 6 C6 5.34 6 4.68 6 4 C5.34 4 4.68 4 4 4 C4 5.98 4 7.96 4 10 C4.66 10 5.32 10 6 10 C6 10.66 6 11.32 6 12 C6.66 12 7.32 12 8 12 C7.67 13.32 7.34 14.64 7 16 C7 15.34 7 14.68 7 14 C6.34 14 5.68 14 5 14 C5 13.01 5 12.02 5 11 C4.34 11 3.68 11 3 11 C2.67 11.99 2.34 12.98 2 14 C2 10.7 2 7.4 2 4 C1.34 4 0.68 4 0 4 C0 2.68 0 1.36 0 0 Z " fill="#5F5E5E" transform="translate(101,59)"/>
<path d="M0 0 C0.66 0 1.32 0 2 0 C2 0.66 2 1.32 2 2 C2.66 2 3.32 2 4 2 C4 2.66 4 3.32 4 4 C4.66 4 5.32 4 6 4 C6 4.66 6 5.32 6 6 C6.66 6 7.32 6 8 6 C8 6.99 8 7.98 8 9 C8.66 9 9.32 9 10 9 C10 9.66 10 10.32 10 11 C10.66 11 11.32 11 12 11 C12 12.32 12 13.64 12 15 C11.01 15 10.02 15 9 15 C8.67 13.68 8.34 12.36 8 11 C7.34 11 6.68 11 6 11 C6 10.34 6 9.68 6 9 C4.68 9 3.36 9 2 9 C2 8.01 2 7.02 2 6 C1.34 6 0.68 6 0 6 C0 4.02 0 2.04 0 0 Z " fill="#BABBBA" transform="translate(14,95)"/>
<path d="M0 0 C1 3 1 3 0 6 C-0.66 6 -1.32 6 -2 6 C-2.33 8.64 -2.66 11.28 -3 14 C-3.33 14 -3.66 14 -4 14 C-4 12.02 -4 10.04 -4 8 C-8.455 8.495 -8.455 8.495 -13 9 C-13 8.34 -13 7.68 -13 7 C-11.35 6.67 -9.7 6.34 -8 6 C-8 5.01 -8 4.02 -8 3 C-5.36 2.67 -2.72 2.34 0 2 C0 1.34 0 0.68 0 0 Z " fill="#818182" transform="translate(103,80)"/>
<path d="M0 0 C0.33 0.99 0.66 1.98 1 3 C1.66 3 2.32 3 3 3 C3.66 4.65 4.32 6.3 5 8 C5.99 8 6.98 8 8 8 C8 5.69 8 3.38 8 1 C8.33 1 8.66 1 9 1 C9.02698189 2.62490954 9.04638757 4.24994633 9.0625 5.875 C9.07410156 6.77992187 9.08570312 7.68484375 9.09765625 8.6171875 C9 11 9 11 8 13 C7.34 13 6.68 13 6 13 C6 12.34 6 11.68 6 11 C5.34 11 4.68 11 4 11 C4 10.34 4 9.68 4 9 C3.01 9 2.02 9 1 9 C0.67 9.99 0.34 10.98 0 12 C0 8.04 0 4.08 0 0 Z " fill="#2B2B2A" transform="translate(105,70)"/>
<path d="M0 0 C2.97 0.495 2.97 0.495 6 1 C6 3.64 6 6.28 6 9 C4.35 9 2.7 9 1 9 C-0.61949011 6.42786866 -1.04408751 5.32330841 -0.625 2.25 C-0.41875 1.5075 -0.2125 0.765 0 0 Z " fill="#69BACE" transform="translate(85,58)"/>
<path d="M0 0 C0.99 0.495 0.99 0.495 2 1 C2 1.66 2 2.32 2 3 C2.66 3 3.32 3 4 3 C4 3.66 4 4.32 4 5 C6.64 5.33 9.28 5.66 12 6 C12 6.66 12 7.32 12 8 C12.66 8 13.32 8 14 8 C14 8.66 14 9.32 14 10 C11.69 9.67 9.38 9.34 7 9 C6.67 9.66 6.34 10.32 6 11 C4.68 10.34 3.36 9.68 2 9 C3.32 9 4.64 9 6 9 C6 8.34 6 7.68 6 7 C4.68 7 3.36 7 2 7 C0.5393715 4.35261084 0 3.10551666 0 0 Z " fill="#9D9D9D" transform="translate(65,51)"/>
<path d="M0 0 C1.65 0 3.3 0 5 0 C5 0.66 5 1.32 5 2 C5.99 2.33 6.98 2.66 8 3 C8 7.95 8 12.9 8 18 C7.67 17.34 7.34 16.68 7 16 C6.34 16 5.68 16 5 16 C5.05800781 15.32453125 5.11601563 14.6490625 5.17578125 13.953125 C5.31374864 11.22531264 5.36212819 8.7095709 5 6 C2.66169042 3.4595774 2.66169042 3.4595774 0 2 C0 1.34 0 0.68 0 0 Z " fill="#B4B5B3" transform="translate(70,15)"/>
<path d="M0 0 C0 1.32 0 2.64 0 4 C-0.66 4 -1.32 4 -2 4 C-2 5.65 -2 7.3 -2 9 C-3.65 9.66 -5.3 10.32 -7 11 C-7.6875 9.3125 -7.6875 9.3125 -8 7 C-6.27679481 3.3812691 -4.46168088 0 0 0 Z " fill="#B9BAB9" transform="translate(98,97)"/>
<path d="M0 0 C0.33 0 0.66 0 1 0 C1.08159574 4.16138263 0.98248524 7.9472484 0 12 C-0.66 12 -1.32 12 -2 12 C-2 13.32 -2 14.64 -2 16 C-2.99 16 -3.98 16 -5 16 C-5 16.66 -5 17.32 -5 18 C-5.66 18 -6.32 18 -7 18 C-7 18.66 -7 19.32 -7 20 C-8.98 20 -10.96 20 -13 20 C-10.38058783 18.25372522 -8.96175123 17.61277612 -6 17 C-5.67 15.68 -5.34 14.36 -5 13 C-4.34 13 -3.68 13 -3 13 C-2.67 10.36 -2.34 7.72 -2 5 C-1.34 5 -0.68 5 0 5 C0 3.35 0 1.7 0 0 Z " fill="#696967" transform="translate(39,70)"/>
<path d="M0 0 C0.66 0 1.32 0 2 0 C2 0.66 2 1.32 2 2 C2.66 2 3.32 2 4 2 C4 2.66 4 3.32 4 4 C4.66 4 5.32 4 6 4 C6.33 7.3 6.66 10.6 7 14 C6.67 13.34 6.34 12.68 6 12 C5.34 12 4.68 12 4 12 C4 10.68 4 9.36 4 8 C3.34 8 2.68 8 2 8 C2 7.34 2 6.68 2 6 C1.34 6 0.68 6 0 6 C0 4.02 0 2.04 0 0 Z " fill="#BEBFBE" transform="translate(105,63)"/>
<path d="M0 0 C1.32 0 2.64 0 4 0 C4 0.66 4 1.32 4 2 C4.66 2 5.32 2 6 2 C6.33 1.34 6.66 0.68 7 0 C7.33 1.32 7.66 2.64 8 4 C8.66 4 9.32 4 10 4 C10 4.66 10 5.32 10 6 C10.99 6 11.98 6 13 6 C13 5.34 13 4.68 13 4 C13.66 4 14.32 4 15 4 C15.33 3.34 15.66 2.68 16 2 C16.33 3.65 16.66 5.3 17 7 C10.375 8.125 10.375 8.125 7 7 C4.8125 5.0625 4.8125 5.0625 3 3 C3 2.34 3 1.68 3 1 C2.01 0.67 1.02 0.34 0 0 Z " fill="#676767" transform="translate(77,73)"/>
<path d="M0 0 C5.75 0.75 5.75 0.75 8 3 C6.02 5.97 6.02 5.97 4 9 C2.68 8.67 1.36 8.34 0 8 C0 5.36 0 2.72 0 0 Z " fill="#8D8D8F" transform="translate(88,38)"/>
<path d="M0 0 C0 0.66 0 1.32 0 2 C0.66 2 1.32 2 2 2 C2 2.66 2 3.32 2 4 C2.99 4 3.98 4 5 4 C4.67 5.32 4.34 6.64 4 8 C3.01 8 2.02 8 1 8 C1 7.01 1 6.02 1 5 C-1.64 4.34 -4.28 3.68 -7 3 C-4.49955934 -0.00052879 -4.2621484 0 0 0 Z " fill="#474745" transform="translate(90,54)"/>
<path d="M0 0 C0.66 0 1.32 0 2 0 C2.33 1.32 2.66 2.64 3 4 C2.34 4 1.68 4 1 4 C1 4.66 1 5.32 1 6 C0.01 6 -0.98 6 -2 6 C-2 7.65 -2 9.3 -2 11 C-3.98 11 -5.96 11 -8 11 C-8 10.34 -8 9.68 -8 9 C-6.68 9 -5.36 9 -4 9 C-4 7.35 -4 5.7 -4 4 C-3.01 3.67 -2.02 3.34 -1 3 C-0.67 2.01 -0.34 1.02 0 0 Z " fill="#B1B3B2" transform="translate(95,58)"/>
<path d="M0 0 C0.99 0 1.98 0 3 0 C3.33 0.99 3.66 1.98 4 3 C4.680625 3.639375 5.36125 4.27875 6.0625 4.9375 C8 7 8 7 8 11 C7.34 11 6.68 11 6 11 C6 10.01 6 9.02 6 8 C5.34 8 4.68 8 4 8 C4 7.34 4 6.68 4 6 C2.02 5.34 0.04 4.68 -2 4 C-2 3.34 -2 2.68 -2 2 C-1.34 2 -0.68 2 0 2 C0 1.34 0 0.68 0 0 Z " fill="#2B2B2A" transform="translate(81,4)"/>
<path d="M0 0 C0.33 0.99 0.66 1.98 1 3 C-4.61 3 -10.22 3 -16 3 C-16 2.67 -16 2.34 -16 2 C-14.02 2 -12.04 2 -10 2 C-10 1.34 -10 0.68 -10 0 C-6.7169902 -1.6415049 -3.57454967 -0.51888624 0 0 Z " fill="#121210" transform="translate(123,125)"/>
<path d="M0 0 C0.99 0.33 1.98 0.66 3 1 C3 1.99 3 2.98 3 4 C3.66 4 4.32 4 5 4 C5 5.32 5 6.64 5 8 C4.34 8 3.68 8 3 8 C3 9.32 3 10.64 3 12 C0.36 12.33 -2.28 12.66 -5 13 C-3.824375 12.2265625 -3.824375 12.2265625 -2.625 11.4375 C0.55594248 8.4837677 1.11493693 6.18393452 2 2 C1.34 2 0.68 2 0 2 C0 1.34 0 0.68 0 0 Z " fill="#5E5E5C" transform="translate(46,46)"/>
<path d="M0 0 C2.31 0 4.62 0 7 0 C7.12375 0.639375 7.2475 1.27875 7.375 1.9375 C7.684375 2.9584375 7.684375 2.9584375 8 4 C8.66 4.33 9.32 4.66 10 5 C7.03 5 4.06 5 1 5 C0.67 3.35 0.34 1.7 0 0 Z " fill="#F7D7A7" transform="translate(84,22)"/>
<path d="M0 0 C0.99 0 1.98 0 3 0 C4.125 5.625 4.125 5.625 3 9 C-0.0625 10.1875 -0.0625 10.1875 -3 11 C-3 10.01 -3 9.02 -3 8 C-1.68 7.67 -0.36 7.34 1 7 C1 6.01 1 5.02 1 4 C0.34 3.67 -0.32 3.34 -1 3 C-0.34 3 0.32 3 1 3 C0.67 2.01 0.34 1.02 0 0 Z " fill="#B9A78C" transform="translate(97,59)"/>
<path d="M0 0 C0.66 0 1.32 0 2 0 C2 0.66 2 1.32 2 2 C2.66 2 3.32 2 4 2 C4 2.66 4 3.32 4 4 C4.66 4 5.32 4 6 4 C6 4.66 6 5.32 6 6 C8.97 6.495 8.97 6.495 12 7 C10 8 8 9 6 10 C6 9.34 6 8.68 6 8 C5.34 8 4.68 8 4 8 C4 7.34 4 6.68 4 6 C3.34 6 2.68 6 2 6 C2 5.34 2 4.68 2 4 C1.34 4 0.68 4 0 4 C0 2.68 0 1.36 0 0 Z " fill="#525151" transform="translate(52,66)"/>
<path d="M0 0 C4.05606165 0.46800711 7.46588679 0.87953208 11 3 C11 3.99 11 4.98 11 6 C11.99 6.33 12.98 6.66 14 7 C12.68 7 11.36 7 10 7 C10 6.34 10 5.68 10 5 C7.36 4.67 4.72 4.34 2 4 C2 3.34 2 2.68 2 2 C1.34 2 0.68 2 0 2 C0 1.34 0 0.68 0 0 Z " fill="#343431" transform="translate(90,54)"/>
<path d="M0 0 C0.66 0.33 1.32 0.66 2 1 C2.625 3.5625 2.625 3.5625 3 6 C3.66 6 4.32 6 5 6 C5.33 8.64 5.66 11.28 6 14 C5.34 14 4.68 14 4 14 C3.87625 13.195625 3.7525 12.39125 3.625 11.5625 C3.41875 10.716875 3.2125 9.87125 3 9 C2.34 8.67 1.68 8.34 1 8 C1 7.34 1 6.68 1 6 C0.34 6 -0.32 6 -1 6 C-1 5.34 -1 4.68 -1 4 C-0.34 4 0.32 4 1 4 C0.67 2.68 0.34 1.36 0 0 Z " fill="#20201E" transform="translate(19,87)"/>
<path d="M0 0 C0.33 0.66 0.66 1.32 1 2 C0.21625 2.268125 -0.5675 2.53625 -1.375 2.8125 C-4.28114923 3.84814432 -4.28114923 3.84814432 -6 7 C-7.66072849 7.68132451 -9.327767 8.34742127 -11 9 C-12.77277259 10.52007842 -12.77277259 10.52007842 -14 12 C-13.75 10.125 -13.75 10.125 -13 8 C-10.9375 6.75 -10.9375 6.75 -9 6 C-9 5.34 -9 4.68 -9 4 C-6.09432866 1.98217268 -3.48330216 0.64505596 0 0 Z " fill="#555554" transform="translate(34,66)"/>
<path d="M0 0 C0.66 0 1.32 0 2 0 C2.33 1.32 2.66 2.64 3 4 C3.66 3.67 4.32 3.34 5 3 C5 2.01 5 1.02 5 0 C5.99 0 6.98 0 8 0 C8.33 2.31 8.66 4.62 9 7 C8.34 7 7.68 7 7 7 C7 6.34 7 5.68 7 5 C5.02 5 3.04 5 1 5 C0.67 3.35 0.34 1.7 0 0 Z " fill="#40403E" transform="translate(49,43)"/>
<path d="M0 0 C0.33 0 0.66 0 1 0 C1 2.31 1 4.62 1 7 C1.99 7.33 2.98 7.66 4 8 C3.01 10.31 2.02 12.62 1 15 C0.67 14.34 0.34 13.68 0 13 C-0.66 12.67 -1.32 12.34 -2 12 C-1.34 8.04 -0.68 4.08 0 0 Z " fill="#BCBBB9" transform="translate(96,25)"/>
<path d="M0 0 C0.99 0 1.98 0 3 0 C3 0.99 3 1.98 3 3 C3.66 3 4.32 3 5 3 C5 3.66 5 4.32 5 5 C5.66 5 6.32 5 7 5 C7 6.32 7 7.64 7 9 C6.01 9 5.02 9 4 9 C3.67 7.68 3.34 6.36 3 5 C2.34 5 1.68 5 1 5 C0.67 3.35 0.34 1.7 0 0 Z " fill="#A9A9A8" transform="translate(19,101)"/>
<path d="M0 0 C2.20914 3.31371 2.22481553 4.3446021 2.125 8.1875 C2.10695313 9.08855469 2.08890625 9.98960938 2.0703125 10.91796875 C2.03550781 11.94857422 2.03550781 11.94857422 2 13 C0.68 13 -0.64 13 -2 13 C-2 11.68 -2 10.36 -2 9 C-1.34 9 -0.68 9 0 9 C0 6.03 0 3.06 0 0 Z " fill="#9FC2C5" transform="translate(98,9)"/>
<path d="M0 0 C0.66 0.33 1.32 0.66 2 1 C1.67 1.66 1.34 2.32 1 3 C0.34 3 -0.32 3 -1 3 C-1 4.32 -1 5.64 -1 7 C0.32 7 1.64 7 3 7 C3 8.32 3 9.64 3 11 C2.34 11 1.68 11 1 11 C0.67 11.99 0.34 12.98 0 14 C-3.57142857 6.71428571 -3.57142857 6.71428571 -2 2 C-1.34 2 -0.68 2 0 2 C0 1.34 0 0.68 0 0 Z " fill="#41403F" transform="translate(48,92)"/>
<path d="M0 0 C0.66 0.33 1.32 0.66 2 1 C1.01 6.28 0.02 11.56 -1 17 C-1.33 17 -1.66 17 -2 17 C-2 15.02 -2 13.04 -2 11 C-2.66 11 -3.32 11 -4 11 C-3.67 10.01 -3.34 9.02 -3 8 C-2.34 8 -1.68 8 -1 8 C-0.67 5.36 -0.34 2.72 0 0 Z " fill="#3F3F3D" transform="translate(101,86)"/>
<path d="M0 0 C1.73662334 3.22515763 2.8905928 6.51329166 4 10 C5.32 10 6.64 10 8 10 C8 10.66 8 11.32 8 12 C6.35 12 4.7 12 3 12 C2.67 10.68 2.34 9.36 2 8 C1.34 8 0.68 8 0 8 C-0.98120464 4.94736336 -0.98120464 3.05263664 0 0 Z " fill="#626465" transform="translate(83,59)"/>
<path d="M0 0 C1.32 0.33 2.64 0.66 4 1 C4 3.31 4 5.62 4 8 C2.68 8 1.36 8 0 8 C0 5.36 0 2.72 0 0 Z " fill="#333231" transform="translate(70,20)"/>
<path d="M0 0 C0.33 0 0.66 0 1 0 C2.32594359 5.96674616 2.0884587 11.92583615 2 18 C1.67 18 1.34 18 1 18 C0.67 15.03 0.34 12.06 0 9 C-0.66 9 -1.32 9 -2 9 C-2 7.35 -2 5.7 -2 4 C-1.34 4 -0.68 4 0 4 C0 2.68 0 1.36 0 0 Z " fill="#686866" transform="translate(98,97)"/>
<path d="M0 0 C0.8125 1.6875 0.8125 1.6875 1 4 C-1.1875 6.8125 -1.1875 6.8125 -4 9 C-6.3125 8.8125 -6.3125 8.8125 -8 8 C-7.34 8 -6.68 8 -6 8 C-6 7.34 -6 6.68 -6 6 C-4.125 3.875 -4.125 3.875 -2 2 C-1.34 2 -0.68 2 0 2 C0 1.34 0 0.68 0 0 Z " fill="#41403D" transform="translate(34,86)"/>
<path d="M0 0 C0.33 0.99 0.66 1.98 1 3 C1.66 3 2.32 3 3 3 C3.33 4.98 3.66 6.96 4 9 C3.01 9 2.02 9 1 9 C0.67 9.99 0.34 10.98 0 12 C0 8.04 0 4.08 0 0 Z " fill="#141412" transform="translate(105,70)"/>
<path d="M0 0 C0.33 0 0.66 0 1 0 C1 1.65 1 3.3 1 5 C-0.175625 5.12375 -0.175625 5.12375 -1.375 5.25 C-4.14749104 5.72806339 -4.14749104 5.72806339 -5.3125 8.0625 C-5.539375 8.701875 -5.76625 9.34125 -6 10 C-6 8.02 -6 6.04 -6 4 C-5.34 4 -4.68 4 -4 4 C-4 3.34 -4 2.68 -4 2 C-2.68 2 -1.36 2 0 2 C0 1.34 0 0.68 0 0 Z " fill="#1F1E1E" transform="translate(24,46)"/>
<path d="M0 0 C0.99 0 1.98 0 3 0 C3 0.66 3 1.32 3 2 C3.99 2 4.98 2 6 2 C5.67 2.66 5.34 3.32 5 4 C4.34 3.67 3.68 3.34 3 3 C3 3.66 3 4.32 3 5 C3.66 5 4.32 5 5 5 C5 5.66 5 6.32 5 7 C4.01 7 3.02 7 2 7 C2 6.34 2 5.68 2 5 C1.34 5 0.68 5 0 5 C0 3.35 0 1.7 0 0 Z " fill="#272724" transform="translate(58,43)"/>
<path d="M0 0 C2 1.375 2 1.375 4 3 C4 3.66 4 4.32 4 5 C4.598125 5.0825 5.19625 5.165 5.8125 5.25 C8.5966296 6.20455872 9.43311142 7.57132271 11 10 C10.67 10.66 10.34 11.32 10 12 C9.1646875 10.8553125 9.1646875 10.8553125 8.3125 9.6875 C6.17290824 6.90426474 6.17290824 6.90426474 3.3125 5.4375 C1 4 1 4 0.1875 1.8125 C0.125625 1.214375 0.06375 0.61625 0 0 Z " fill="#9A9B99" transform="translate(85,13)"/>
<path d="M0 0 C0.99 0 1.98 0 3 0 C4.60725635 3.21451269 4.05748185 6.43612536 4 10 C3.34 10 2.68 10 2 10 C1.34 6.7 0.68 3.4 0 0 Z " fill="#828381" transform="translate(86,89)"/>
<path d="M0 0 C1.32 0.33 2.64 0.66 4 1 C4 1.66 4 2.32 4 3 C4.66 3 5.32 3 6 3 C8 6 8 6 8 9 C7.34 9 6.68 9 6 9 C6 8.01 6 7.02 6 6 C5.34 6 4.68 6 4 6 C4 5.34 4 4.68 4 4 C3.34 4 2.68 4 2 4 C2 3.34 2 2.68 2 2 C1.34 2 0.68 2 0 2 C0 1.34 0 0.68 0 0 Z " fill="#4E4F4D" transform="translate(105,61)"/>
<path d="M0 0 C0.33 0 0.66 0 1 0 C1.125 5.75 1.125 5.75 0 8 C-0.99 8 -1.98 8 -3 8 C-3 6.35 -3 4.7 -3 3 C-2.01 2.67 -1.02 2.34 0 2 C0 1.34 0 0.68 0 0 Z " fill="#BABAB9" transform="translate(122,112)"/>
<path d="M0 0 C1.53202706 0.25195908 3.05257128 0.57596777 4.5625 0.9375 C5.38878906 1.13214844 6.21507813 1.32679687 7.06640625 1.52734375 C8.02353516 1.76130859 8.02353516 1.76130859 9 2 C9 2.66 9 3.32 9 4 C6.36 4 3.72 4 1 4 C1 3.34 1 2.68 1 2 C0.34 1.67 -0.32 1.34 -1 1 C-0.67 0.67 -0.34 0.34 0 0 Z " fill="#2F2E2C" transform="translate(74,94)"/>
<path d="M0 0 C1 3 1 3 0 6 C-2.31 5.67 -4.62 5.34 -7 5 C-6.34 4.67 -5.68 4.34 -5 4 C-5 3.34 -5 2.68 -5 2 C-3.35 2 -1.7 2 0 2 C0 1.34 0 0.68 0 0 Z " fill="#BEBFBD" transform="translate(103,80)"/>
<path d="M0 0 C1.89492188 0.15275391 1.89492188 0.15275391 3.828125 0.30859375 C4.79234375 0.39238281 5.7565625 0.47617187 6.75 0.5625 C6.75 0.8925 6.75 1.2225 6.75 1.5625 C2.46 1.5625 -1.83 1.5625 -6.25 1.5625 C-6.25 2.2225 -6.25 2.8825 -6.25 3.5625 C-9.25 2.5625 -9.25 2.5625 -11.25 0.5625 C-7.43483536 -0.73812431 -3.97438237 -0.33119853 0 0 Z " fill="#494848" transform="translate(37.25,42.4375)"/>
<path d="M0 0 C1.65 0 3.3 0 5 0 C5 0.66 5 1.32 5 2 C5.99 2.33 6.98 2.66 8 3 C7.01 3.495 7.01 3.495 6 4 C5.67 4.66 5.34 5.32 5 6 C3.2925002 4.71937515 1.62626404 3.38232443 0 2 C0 1.34 0 0.68 0 0 Z " fill="#A1A1A3" transform="translate(70,15)"/>
<path d="M0 0 C0.66 0.33 1.32 0.66 2 1 C1.49396008 3.16874252 1.00016187 4.99967627 0 7 C-0.99 7 -1.98 7 -3 7 C-3 5.68 -3 4.36 -3 3 C-2.34 3 -1.68 3 -1 3 C-0.67 2.01 -0.34 1.02 0 0 Z " fill="#F1D0A1" transform="translate(101,25)"/>
<path d="M0 0 C1.32 0 2.64 0 4 0 C4 0.66 4 1.32 4 2 C4.66 2 5.32 2 6 2 C6.33 1.34 6.66 0.68 7 0 C7.66 1.98 8.32 3.96 9 6 C7 5 5 4 3 3 C3 2.34 3 1.68 3 1 C2.01 0.67 1.02 0.34 0 0 Z " fill="#80807E" transform="translate(77,73)"/>
<path d="M0 0 C0 0.99 0 1.98 0 3 C-1.32 3.33 -2.64 3.66 -4 4 C-4 4.99 -4 5.98 -4 7 C-4.99 6.67 -5.98 6.34 -7 6 C-6.34 6 -5.68 6 -5 6 C-5 4.35 -5 2.7 -5 1 C-2 0 -2 0 0 0 Z " fill="#4F4E4A" transform="translate(98,63)"/>
<path d="M0 0 C0.99 0.33 1.98 0.66 3 1 C2.34 2.98 1.68 4.96 1 7 C0.01 7 -0.98 7 -2 7 C-1.125 2.25 -1.125 2.25 0 0 Z " fill="#161614" transform="translate(81,58)"/>
<path d="M0 0 C0.99 0.33 1.98 0.66 3 1 C3 1.66 3 2.32 3 3 C3.66 3.33 4.32 3.66 5 4 C4.34 4 3.68 4 3 4 C3 5.32 3 6.64 3 8 C2.34 8 1.68 8 1 8 C1 6.02 1 4.04 1 2 C0.34 1.67 -0.32 1.34 -1 1 C-0.67 0.67 -0.34 0.34 0 0 Z " fill="#535352" transform="translate(67,16)"/>
<path d="M0 0 C0.99 0 1.98 0 3 0 C3.33 1.98 3.66 3.96 4 6 C2.35 5.67 0.7 5.34 -1 5 C-0.67 3.35 -0.34 1.7 0 0 Z " fill="#7E7E7C" transform="translate(84,40)"/>
<path d="M0 0 C1.65 0.33 3.3 0.66 5 1 C4.01 2.32 3.02 3.64 2 5 C1.01 4.67 0.02 4.34 -1 4 C-0.67 2.68 -0.34 1.36 0 0 Z " fill="#BCBBB9" transform="translate(89,42)"/>
<path d="M0 0 C2.97 0.33 5.94 0.66 9 1 C9 1.33 9 1.66 9 2 C6.69 2 4.38 2 2 2 C2 2.66 2 3.32 2 4 C1.34 4 0.68 4 0 4 C0 2.68 0 1.36 0 0 Z " fill="#C8A46D" transform="translate(82,20)"/>
<path d="M0 0 C0.33 0 0.66 0 1 0 C1.042721 1.66611905 1.04063832 3.33382885 1 5 C0 6 0 6 -3.0625 6.0625 C-4.5165625 6.0315625 -4.5165625 6.0315625 -6 6 C-2.25 3 -2.25 3 0 3 C0 2.01 0 1.02 0 0 Z " fill="#5A5955" transform="translate(100,65)"/>
</svg>
